<svg id="Layer_3" data-name="Layer 3" xmlns="http://www.w3.org/2000/svg" xmlns:xlink="http://www.w3.org/1999/xlink" viewBox="0 0 159.62 196.56"><defs><style>.cls-1,.cls-2{fill:none;}.cls-1,.cls-3,.cls-4{stroke:#000;stroke-miterlimit:10;}.cls-4,.cls-8{fill:#010101;}.cls-5{fill:#ff6f00;}.cls-6{clip-path:url(#clip-path);}.cls-7{clip-path:url(#clip-path-2);}.cls-9{clip-path:url(#clip-path-3);}.cls-10{clip-path:url(#clip-path-4);}.cls-11{clip-path:url(#clip-path-5);}.cls-12{clip-path:url(#clip-path-6);}.cls-13{fill:#fff;}.cls-14{clip-path:url(#clip-path-7);}.cls-15{clip-path:url(#clip-path-8);}.cls-16{clip-path:url(#clip-path-9);}.cls-17{clip-path:url(#clip-path-10);}.cls-18{fill:#1d1d1d;}.cls-19{font-size:33px;font-family:Oswald-Medium, Oswald;}.cls-20{clip-path:url(#clip-path-11);}.cls-21{clip-path:url(#clip-path-12);}</style><clipPath id="clip-path"><circle class="cls-1" cx="-278.85" cy="-99.45" r="79.62"/></clipPath><clipPath id="clip-path-2"><rect class="cls-2" x="-1095.49" y="-256.07" width="1394.82" height="1394.82" transform="translate(-607.32 -114.96) rotate(-62.66)"/></clipPath><clipPath id="clip-path-3"><circle class="cls-4" cx="-98.85" cy="-99.45" r="79.62"/></clipPath><clipPath id="clip-path-4"><rect class="cls-2" x="-915.49" y="-256.07" width="1394.82" height="1394.82" transform="translate(-509.98 44.94) rotate(-62.66)"/></clipPath><clipPath id="clip-path-5"><circle class="cls-5" cx="81.15" cy="-99.45" r="79.62"/></clipPath><clipPath id="clip-path-6"><rect class="cls-2" x="-735.49" y="-256.07" width="1394.82" height="1394.82" transform="translate(-412.64 204.83) rotate(-62.66)"/></clipPath><clipPath id="clip-path-7"><circle class="cls-1" cx="-279.23" cy="80.55" r="79.62"/></clipPath><clipPath id="clip-path-8"><rect class="cls-2" x="-1095.88" y="-76.07" width="1394.82" height="1394.82" transform="translate(-767.43 -17.96) rotate(-62.66)"/></clipPath><clipPath id="clip-path-9"><circle class="cls-5" cx="80" cy="80.55" r="79.62"/></clipPath><clipPath id="clip-path-10"><rect class="cls-2" x="-736.65" y="-76.07" width="1394.82" height="1394.82" transform="translate(-573.16 301.15) rotate(-62.66)"/></clipPath><clipPath id="clip-path-11"><circle class="cls-3" cx="-99.62" cy="80.55" r="79.62"/></clipPath><clipPath id="clip-path-12"><rect class="cls-2" x="-916.26" y="-76.07" width="1394.82" height="1394.82" transform="translate(-670.29 141.59) rotate(-62.66)"/></clipPath></defs><title>FlameHound Logo with Orange Background +Text</title><g id="Layer_2" data-name="Layer 2"><g id="Layer_4" data-name="Layer 4"><g id="Layer_2-2" data-name="Layer 2"><g id="Layer_1" data-name="Layer 1"><g class="cls-6"><g id="Layer_2-3" data-name="Layer 2"><g class="cls-7"><path class="cls-5" d="M-71.82-23.65a3.87,3.87,0,0,1,4.44.41l4.58,3.94s1.64-.36,3.56-.58A6,6,0,0,0-60-16.53l4.37,3.47s5-19.59,10.86-22.18,6.36-7,8.85-4.49,11.55,24.64,12,31.78S-4.75,9-4.58,23.42-6.32,40.11-2,47.58,8.8,56.44,5.71,61.37s-12.53,5.3-12.53,5.3,2.62,26.49,5.71,39.21S15,121.46,23.25,137.32s56.81,45.32,71.45,70.29,16.64,62.25,27.4,76,25,9.56,25,9.56-7,7-14.9,8.25c0,0,21.37,10.08,37.64.12,0,0-11.89,12.71-18.25,14.73,0,0,27.16,8.24,35.8-5.66,0,0-23.77,53.45-70.12,30,0,0,3,6.38,7.18,8.55,0,0-38.88-8-47.22-44.23q-.76-3.29-1.34-6.27C73,303,70.1,307.23,67.77,310.19c-4.88,6.2-.84,33.41-5.54,40.64s-17.59,36.83-21,36S14.09,374.76,16,371.9s16.74-2.46,18-6.67,10.65-20.6,8.06-27.74c-2.26-6.23-11.18-28.78-15.07-44.28-11.32-.58-12.52,1-12.3,8.38.26,8.84,16.13,14.62,10.42,24.72S-16.09,363-21.44,360.26s-29.45-9.42-27.08-14,10.06-5.43,15.62-5,29.8-16.5,28.11-19.78-16.43-34.6-12.63-45.69S.65,243.65.65,243.65s-8-3.9-20.56-10.69c-10.2-5.52-13.81-8.39-21.68-16-2.47,4-9,13.85-10.43,15.27-4.87,4.74-36.08,40.8-40.88,40.74s-29.42-11.34-29-13.07,10.92-8.37,18.49-8.81,8-2.16,8.56-3.31,22.6-24.08,24.09-34.43c.47-3.25,1.45-9.83,2.52-17.85a30.91,30.91,0,0,1-3-5.61s-13.94,26.29-18.81,31-36.08,40.8-40.88,40.74-29.42-11.34-29-13.06,10.92-8.37,18.48-8.81,8-2.16,8.56-3.31,22.6-24.09,24.09-34.44,8.22-54.24,6.15-71.74S-90,87-90.54,73.18s16.13-28.4,16-34.74S-68.6,5-72.82-2.25-77.33-16.42-75.46-20a9,9,0,0,1,3.64-3.6"/><path class="cls-1" d="M-71.82-23.65a3.87,3.87,0,0,1,4.44.41l4.58,3.94s1.64-.36,3.56-.58A6,6,0,0,0-60-16.53l4.37,3.47s5-19.59,10.86-22.18,6.36-7,8.85-4.49,11.55,24.64,12,31.78S-4.75,9-4.58,23.42-6.32,40.11-2,47.58,8.8,56.44,5.71,61.37s-12.53,5.3-12.53,5.3,2.62,26.49,5.71,39.21S15,121.46,23.25,137.32s56.81,45.32,71.45,70.29,16.64,62.25,27.4,76,25,9.56,25,9.56-7,7-14.9,8.25c0,0,21.37,10.08,37.64.12,0,0-11.89,12.71-18.25,14.73,0,0,27.16,8.24,35.8-5.66,0,0-23.77,53.45-70.12,30,0,0,3,6.38,7.18,8.55,0,0-38.88-8-47.22-44.23q-.76-3.29-1.34-6.27C73,303,70.1,307.23,67.77,310.19c-4.88,6.2-.84,33.41-5.54,40.64s-17.59,36.83-21,36S14.09,374.76,16,371.9s16.74-2.46,18-6.67,10.65-20.6,8.06-27.74c-2.26-6.23-11.18-28.78-15.07-44.28-11.32-.58-12.52,1-12.3,8.38.26,8.84,16.13,14.62,10.42,24.72S-16.09,363-21.44,360.26s-29.45-9.42-27.08-14,10.06-5.43,15.62-5,29.8-16.5,28.11-19.78-16.43-34.6-12.63-45.69S.65,243.65.65,243.65s-8-3.9-20.56-10.69c-10.2-5.52-13.81-8.39-21.68-16-2.47,4-9,13.85-10.43,15.27-4.87,4.74-36.08,40.8-40.88,40.74s-29.42-11.34-29-13.07,10.92-8.37,18.49-8.81,8-2.16,8.56-3.31,22.6-24.08,24.09-34.43c.47-3.25,1.45-9.83,2.52-17.85a30.91,30.91,0,0,1-3-5.61s-13.94,26.29-18.81,31-36.08,40.8-40.88,40.74-29.42-11.34-29-13.06,10.92-8.37,18.48-8.81,8-2.16,8.56-3.31,22.6-24.09,24.09-34.44,8.22-54.24,6.15-71.74S-90,87-90.54,73.18s16.13-28.4,16-34.74S-68.6,5-72.82-2.25-77.33-16.42-75.46-20A9,9,0,0,1-71.82-23.65Z"/></g></g></g><circle class="cls-1" cx="-278.85" cy="-99.45" r="79.62"/></g></g><g id="Layer_2-4" data-name="Layer 2"><g id="Layer_1-2" data-name="Layer 1"><circle class="cls-8" cx="-98.85" cy="-99.45" r="79.62"/><g class="cls-9"><g id="Layer_2-5" data-name="Layer 2"><g class="cls-10"><path class="cls-5" d="M108.18-23.65a3.87,3.87,0,0,1,4.44.41l4.58,3.94s1.64-.36,3.56-.58a6,6,0,0,0-.77,3.35l4.37,3.47s5-19.59,10.86-22.18,6.36-7,8.85-4.49,11.55,24.64,12,31.78,19.14,17,19.31,31.37S173.68,40.11,178,47.58s10.83,8.86,7.74,13.79-12.53,5.3-12.53,5.3,2.62,26.49,5.71,39.21,16.11,15.58,24.35,31.44,56.81,45.32,71.45,70.29,16.64,62.25,27.4,76,25,9.56,25,9.56-7,7-14.9,8.25c0,0,21.37,10.08,37.64.12,0,0-11.89,12.71-18.25,14.73,0,0,27.16,8.24,35.8-5.66,0,0-23.77,53.45-70.12,30,0,0,3,6.38,7.18,8.55,0,0-38.88-8-47.22-44.23q-.76-3.29-1.34-6.27c-2.88,4.33-5.81,8.56-8.14,11.51-4.88,6.2-.84,33.41-5.54,40.64s-17.59,36.83-21,36S194.09,374.76,196,371.9s16.74-2.46,18-6.67,10.65-20.6,8.06-27.74c-2.26-6.23-11.18-28.78-15.07-44.28-11.32-.58-12.52,1-12.3,8.38.26,8.84,16.13,14.62,10.42,24.72s-41.21,36.7-46.55,33.94-29.45-9.42-27.08-14,10.06-5.43,15.62-5,29.8-16.5,28.11-19.78-16.43-34.6-12.63-45.69,18.06-32.17,18.06-32.17-8-3.9-20.56-10.69c-10.2-5.52-13.81-8.39-21.68-16-2.47,4-9,13.85-10.43,15.27-4.87,4.74-36.08,40.8-40.88,40.74s-29.42-11.34-29-13.07S69,251.49,76.57,251s8-2.16,8.56-3.31,22.6-24.08,24.09-34.43c.47-3.25,1.45-9.83,2.52-17.85a30.91,30.91,0,0,1-3-5.61s-13.94,26.29-18.81,31-36.08,40.8-40.88,40.74-29.42-11.34-29-13.06,10.92-8.37,18.48-8.81,8-2.16,8.56-3.31S69.72,212.34,71.2,202s8.22-54.24,6.15-71.74S90,87,89.46,73.18s16.13-28.4,16-34.74S111.4,5,107.18-2.25s-4.51-14.18-2.64-17.8a9,9,0,0,1,3.64-3.6"/><path class="cls-1" d="M108.18-23.65a3.87,3.87,0,0,1,4.44.41l4.58,3.94s1.64-.36,3.56-.58a6,6,0,0,0-.77,3.35l4.37,3.47s5-19.59,10.86-22.18,6.36-7,8.85-4.49,11.55,24.64,12,31.78,19.14,17,19.31,31.37S173.68,40.11,178,47.58s10.83,8.86,7.74,13.79-12.53,5.3-12.53,5.3,2.62,26.49,5.71,39.21,16.11,15.58,24.35,31.44,56.81,45.32,71.45,70.29,16.64,62.25,27.4,76,25,9.56,25,9.56-7,7-14.9,8.25c0,0,21.37,10.08,37.64.12,0,0-11.89,12.71-18.25,14.73,0,0,27.16,8.24,35.8-5.66,0,0-23.77,53.45-70.12,30,0,0,3,6.38,7.18,8.55,0,0-38.88-8-47.22-44.23q-.76-3.29-1.34-6.27c-2.88,4.33-5.81,8.56-8.14,11.51-4.88,6.2-.84,33.41-5.54,40.64s-17.59,36.83-21,36S194.09,374.76,196,371.9s16.74-2.46,18-6.67,10.65-20.6,8.06-27.74c-2.26-6.23-11.18-28.78-15.07-44.28-11.32-.58-12.52,1-12.3,8.38.26,8.84,16.13,14.62,10.42,24.72s-41.21,36.7-46.55,33.94-29.45-9.42-27.08-14,10.06-5.43,15.62-5,29.8-16.5,28.11-19.78-16.43-34.6-12.63-45.69,18.06-32.17,18.06-32.17-8-3.9-20.56-10.69c-10.2-5.52-13.81-8.39-21.68-16-2.47,4-9,13.85-10.43,15.27-4.87,4.74-36.08,40.8-40.88,40.74s-29.42-11.34-29-13.07S69,251.49,76.57,251s8-2.16,8.56-3.31,22.6-24.08,24.09-34.43c.47-3.25,1.45-9.83,2.52-17.85a30.91,30.91,0,0,1-3-5.61s-13.94,26.29-18.81,31-36.08,40.8-40.88,40.74-29.42-11.34-29-13.06,10.92-8.37,18.48-8.81,8-2.16,8.56-3.31S69.72,212.34,71.2,202s8.22-54.24,6.15-71.74S90,87,89.46,73.18s16.13-28.4,16-34.74S111.4,5,107.18-2.25s-4.51-14.18-2.64-17.8A9,9,0,0,1,108.18-23.65Z"/></g></g></g><circle class="cls-1" cx="-98.85" cy="-99.45" r="79.62"/></g></g><g id="Layer_2-6" data-name="Layer 2"><g id="Layer_1-3" data-name="Layer 1"><circle class="cls-5" cx="81.15" cy="-99.45" r="79.62"/><g class="cls-11"><g id="Layer_2-7" data-name="Layer 2"><g class="cls-12"><path id="_Compound_Path_" data-name="&lt;Compound Path&gt;" class="cls-13" d="M-220.7-46.14c-17.87,1.67-34.27-20-38.17-39.5,0,0-28.23,54.61,41.72,71.43l-6.28,2.86s25.31,7.81,40.26-4.48a44.13,44.13,0,0,0,6.29-6.59A57,57,0,0,0-182-8.71c-2.88,14-21.1,33.36-23.05,40.86s-3.31,50.62-1.6,51.51l15.49,8s-1.71-40.14.57-42a78.65,78.65,0,0,0,11-12.28c-2.92,7.32-5.92,13.22-7.63,14-4,1.85-1.54,50.23-.1,51.85s21.33,12.33,25.84,12-7-16.69-7-16.69,4.24-31.83,3.46-37.9c-.73-5.67,36.32-23.38,50.47-41.52l6.3,2c40,11.28,30.87,31.46,73.21,33.92,2.45.14-18.26,47.69-22,57.52s-12.14,13.35-12.36,17.16S-70.78,150-71,152.94s19.06,12.91,22,11.39S-52,146.61-52,144s39.11-70.5,39.11-70.5S-44.26,136.66-47,139.59s2.26,21.67,2.26,21.67l12.88,7.11a1.08,1.08,0,0,0,1.49-1.43c-1.19-2.36-2.29-9.16-5.6-11.31-2.23-1.45,2.51-8.59,2.51-8.59S-20.16,123-13.88,114.42s24.74-43.9,37-50.67c4.21-2.33,9.5-4.85,15.49-8.68.29,0,.59-.09.89-.16C59.63,50.8,74.3,25.24,74.3,25.24S68.39,43.41,67.8,44s15-13.2,25.73-40.78,13-83.4,13-83.4,16-20.28,19.23-26,8.39-5.69,9.65-8.54-4.86-12.11-5.82-11.51-5.6,4.08-5.6,4.08l-4.66-1.53-.22,3.81s-9.22,2.65-9.74,2.38.09-6.5,1.42-9.08a65.28,65.28,0,0,1,4.69-7l3.1,1.17.15-4.94a30.4,30.4,0,0,0,1.9-5.78c.47-2.59-3.78-9.15-3.78-9.15s.45-1.29-.45-5.47-3.74-5.42-6.82-1.56S99.15-147.92,94-142.53,82.68-134.63,69.47-131,49.09-112.45,47-111.47C24.66-101.16,16.27-84.31,15.73-83.28s16.39,3.85,16.39,3.85a64.62,64.62,0,0,1-11.5,14.92h0S8.53-51.41-1.63-62.85c-8.59-9.68-27.16-15.79-27.16-15.79l4.62,5.4s-8.71-3.81-25.63-8.2-30.41-17.1-30.41-17.1l1.59,7.87s-26.33-13.61-47-14.49-30.55,4.27-30,4.53,12.8,2.77,14.41,3c-2.39.17-27.31,5.78-41.53,28.81l9.94-4.89S-180.83-60-189-56.8a55.48,55.48,0,0,1-15,3.61l6.54,3.38s-19.09,2.34-29.73-5.77c0,0,7.68,9.33,6.46,9.44m38.49-23.5A44.84,44.84,0,0,1-175-76.94a58.2,58.2,0,0,0-7.18,7.29"/><path class="cls-1" d="M-258.87-85.64S-287.1-31-217.15-14.21l-6.28,2.86s25.31,7.81,40.26-4.48a44.13,44.13,0,0,0,6.29-6.59A57,57,0,0,0-182-8.71c-2.88,14-21.1,33.36-23.05,40.86s-3.31,50.62-1.6,51.51l15.49,8s-1.71-40.14.57-42a78.65,78.65,0,0,0,11-12.28c-2.92,7.32-5.92,13.22-7.63,14-4,1.85-1.54,50.23-.1,51.85s21.33,12.33,25.84,12-7-16.69-7-16.69,4.24-31.83,3.46-37.9c-.73-5.67,36.32-23.38,50.47-41.52l6.3,2c40,11.28,30.87,31.46,73.21,33.92,2.45.14-18.26,47.69-22,57.52s-12.14,13.35-12.36,17.16S-70.78,150-71,152.94s19.06,12.91,22,11.39S-52,146.61-52,144s39.11-70.5,39.11-70.5S-44.26,136.66-47,139.59s2.26,21.67,2.26,21.67l12.88,7.11a1.08,1.08,0,0,0,1.49-1.43c-1.19-2.36-2.29-9.16-5.6-11.31-2.23-1.45,2.51-8.59,2.51-8.59S-20.16,123-13.88,114.42s24.74-43.9,37-50.67c4.21-2.33,9.5-4.85,15.49-8.68.29,0,.59-.09.89-.16C59.63,50.8,74.3,25.24,74.3,25.24S68.39,43.41,67.8,44s15-13.2,25.73-40.78,13-83.4,13-83.4,16-20.28,19.23-26,8.39-5.69,9.65-8.54-4.86-12.11-5.82-11.51-5.6,4.08-5.6,4.08l-4.66-1.53-.22,3.81s-9.22,2.65-9.74,2.38.09-6.5,1.42-9.08a65.28,65.28,0,0,1,4.69-7l3.1,1.17.15-4.94a30.4,30.4,0,0,0,1.9-5.78c.47-2.59-3.78-9.15-3.78-9.15s.45-1.29-.45-5.47-3.74-5.42-6.82-1.56S99.15-147.92,94-142.53,82.68-134.63,69.47-131,49.09-112.45,47-111.47C24.66-101.16,16.27-84.31,15.73-83.28s16.39,3.85,16.39,3.85a64.62,64.62,0,0,1-11.5,14.92h0S8.53-51.41-1.63-62.85c-8.59-9.68-27.16-15.79-27.16-15.79l4.62,5.4s-8.71-3.81-25.63-8.2-30.41-17.1-30.41-17.1l1.59,7.87s-26.33-13.61-47-14.49-30.55,4.27-30,4.53,12.8,2.77,14.41,3c-2.39.17-27.31,5.78-41.53,28.81l9.94-4.89S-180.83-60-189-56.8a55.48,55.48,0,0,1-15,3.61l6.54,3.38s-19.09,2.34-29.73-5.77c0,0,7.68,9.33,6.46,9.44C-238.57-44.47-255-66.18-258.87-85.64ZM-175-76.94a58.2,58.2,0,0,0-7.18,7.29A44.84,44.84,0,0,1-175-76.94Z"/></g></g></g></g></g><g id="Layer_2-8" data-name="Layer 2"><g id="Layer_1-4" data-name="Layer 1"><g class="cls-14"><g id="Layer_2-9" data-name="Layer 2"><g class="cls-15"><path class="cls-5" d="M-72.2,156.35a3.87,3.87,0,0,1,4.44.41l4.58,3.94s1.64-.36,3.56-.58a6,6,0,0,0-.77,3.35l4.37,3.47s5-19.59,10.86-22.18,6.36-7,8.85-4.49,11.55,24.64,12,31.78S-5.13,189-5,203.42s-1.74,16.69,2.56,24.16,10.83,8.86,7.74,13.79-12.53,5.3-12.53,5.3,2.62,26.49,5.71,39.21,16.11,15.58,24.35,31.44,56.81,45.32,71.45,70.29,16.64,62.25,27.4,76,25,9.56,25,9.56-7,7-14.9,8.25c0,0,21.37,10.08,37.64.12,0,0-11.89,12.71-18.25,14.73,0,0,27.16,8.24,35.8-5.66,0,0-23.77,53.45-70.12,30,0,0,3,6.38,7.18,8.55,0,0-38.88-8-47.22-44.23q-.76-3.29-1.34-6.27c-2.88,4.33-5.81,8.56-8.14,11.51-4.88,6.2-.84,33.41-5.54,40.64s-17.59,36.83-21,36S13.7,554.76,15.66,551.9s16.74-2.46,18-6.67,10.65-20.6,8.06-27.74c-2.26-6.23-11.18-28.78-15.07-44.28-11.32-.58-12.52,1-12.3,8.38.26,8.84,16.13,14.62,10.42,24.72S-16.48,543-21.82,540.26s-29.45-9.42-27.08-14,10.06-5.43,15.62-5,29.8-16.5,28.11-19.78S-21.6,466.9-17.8,455.82.26,423.65.26,423.65s-8-3.9-20.56-10.69c-10.2-5.52-13.81-8.39-21.68-16-2.47,4-9,13.85-10.43,15.27-4.87,4.74-36.08,40.8-40.88,40.74s-29.42-11.34-29-13.07,10.92-8.37,18.49-8.81,8-2.16,8.56-3.31,22.6-24.08,24.09-34.43c.47-3.25,1.45-9.83,2.52-17.85a30.91,30.91,0,0,1-3-5.61s-13.94,26.29-18.81,31-36.08,40.8-40.88,40.74-29.42-11.34-29-13.06,10.92-8.37,18.48-8.81,8-2.16,8.56-3.31,22.6-24.09,24.09-34.44,8.22-54.24,6.15-71.74,12.68-43.23,12.1-57.07,16.13-28.4,16-34.74S-69,185-73.2,177.75s-4.51-14.18-2.64-17.8a9,9,0,0,1,3.64-3.6"/><path class="cls-1" d="M-72.2,156.35a3.87,3.87,0,0,1,4.44.41l4.58,3.94s1.64-.36,3.56-.58a6,6,0,0,0-.77,3.35l4.37,3.47s5-19.59,10.86-22.18,6.36-7,8.85-4.49,11.55,24.64,12,31.78S-5.13,189-5,203.42s-1.74,16.69,2.56,24.16,10.83,8.86,7.74,13.79-12.53,5.3-12.53,5.3,2.62,26.49,5.71,39.21,16.11,15.58,24.35,31.44,56.81,45.32,71.45,70.29,16.64,62.25,27.4,76,25,9.56,25,9.56-7,7-14.9,8.25c0,0,21.37,10.08,37.64.12,0,0-11.89,12.71-18.25,14.73,0,0,27.16,8.24,35.8-5.66,0,0-23.77,53.45-70.12,30,0,0,3,6.38,7.18,8.55,0,0-38.88-8-47.22-44.23q-.76-3.29-1.34-6.27c-2.88,4.33-5.81,8.56-8.14,11.51-4.88,6.2-.84,33.41-5.54,40.64s-17.59,36.83-21,36S13.7,554.76,15.66,551.9s16.74-2.46,18-6.67,10.65-20.6,8.06-27.74c-2.26-6.23-11.18-28.78-15.07-44.28-11.32-.58-12.52,1-12.3,8.38.26,8.84,16.13,14.62,10.42,24.72S-16.48,543-21.82,540.26s-29.45-9.42-27.08-14,10.06-5.43,15.62-5,29.8-16.5,28.11-19.78S-21.6,466.9-17.8,455.82.26,423.65.26,423.65s-8-3.9-20.56-10.69c-10.2-5.52-13.81-8.39-21.68-16-2.47,4-9,13.85-10.43,15.27-4.87,4.74-36.08,40.8-40.88,40.74s-29.42-11.34-29-13.07,10.92-8.37,18.49-8.81,8-2.16,8.56-3.31,22.6-24.08,24.09-34.43c.47-3.25,1.45-9.83,2.52-17.85a30.91,30.91,0,0,1-3-5.61s-13.94,26.29-18.81,31-36.08,40.8-40.88,40.74-29.42-11.34-29-13.06,10.92-8.37,18.48-8.81,8-2.16,8.56-3.31,22.6-24.09,24.09-34.44,8.22-54.24,6.15-71.74,12.68-43.23,12.1-57.07,16.13-28.4,16-34.74S-69,185-73.2,177.75s-4.51-14.18-2.64-17.8A9,9,0,0,1-72.2,156.35Z"/></g></g></g><circle class="cls-1" cx="-279.23" cy="80.55" r="79.62"/></g></g><g id="Layer_2-10" data-name="Layer 2"><g id="Layer_1-5" data-name="Layer 1"><circle class="cls-5" cx="80" cy="80.55" r="79.62"/><g class="cls-16"><g id="Layer_2-11" data-name="Layer 2"><g class="cls-17"><path id="_Compound_Path_2" data-name="&lt;Compound Path&gt;" class="cls-13" d="M-221.85,133.86c-17.87,1.67-34.27-20-38.17-39.5,0,0-28.23,54.61,41.72,71.43l-6.28,2.86s25.31,7.81,40.26-4.48a44.13,44.13,0,0,0,6.29-6.59,57,57,0,0,0-5.16,13.71c-2.88,14-21.1,33.36-23.05,40.86s-3.31,50.62-1.6,51.51l15.49,8s-1.71-40.14.57-42a78.65,78.65,0,0,0,11-12.28c-2.92,7.32-5.92,13.22-7.63,14-4,1.85-1.54,50.23-.1,51.85s21.33,12.33,25.84,12-7-16.69-7-16.69,4.24-31.83,3.46-37.9c-.73-5.67,36.32-23.38,50.47-41.52l6.3,2c40,11.28,30.87,31.46,73.21,33.92,2.45.14-18.26,47.69-22,57.52s-12.14,13.35-12.36,17.16-1.31,20.26-1.53,23.2,19.06,12.91,22,11.39-3.05-17.72-3-20.31S-14,253.51-14,253.51s-31.39,63.15-34.16,66.08,2.26,21.67,2.26,21.67L-33,348.37a1.08,1.08,0,0,0,1.49-1.43c-1.19-2.36-2.29-9.16-5.6-11.31-2.23-1.45,2.51-8.59,2.51-8.59S-21.31,303-15,294.42s24.74-43.9,37-50.67c4.21-2.33,9.5-4.85,15.49-8.68.29,0,.59-.09.89-.16,20.15-4.12,34.82-29.68,34.82-29.68S67.24,223.41,66.65,224s15-13.2,25.73-40.78,13-83.4,13-83.4,16-20.28,19.23-26,8.39-5.69,9.65-8.54-4.86-12.11-5.82-11.51-5.6,4.08-5.6,4.08l-4.66-1.53L118,60.07s-9.22,2.65-9.74,2.38.09-6.5,1.42-9.08a65.28,65.28,0,0,1,4.69-7l3.1,1.17.15-4.94a30.4,30.4,0,0,0,1.9-5.78c.47-2.59-3.78-9.15-3.78-9.15s.45-1.29-.45-5.47-3.74-5.42-6.82-1.56S98,32.08,92.81,37.47,81.53,45.37,68.31,49,47.94,67.55,45.83,68.53C23.5,78.84,15.12,95.69,14.58,96.72S31,100.57,31,100.57a64.62,64.62,0,0,1-11.5,14.92h0s-12.09,13.1-22.25,1.66c-8.59-9.68-27.16-15.79-27.16-15.79l4.62,5.4S-34,102.95-51,98.56s-30.41-17.1-30.41-17.1l1.59,7.87s-26.33-13.61-47-14.49-30.55,4.27-30,4.53,12.8,2.77,14.41,3c-2.39.17-27.31,5.78-41.53,28.81l9.94-4.89s-8,13.76-16.17,16.94a55.48,55.48,0,0,1-15,3.61l6.54,3.38s-19.09,2.34-29.73-5.77c0,0,7.68,9.33,6.46,9.44m38.49-23.5a44.84,44.84,0,0,1,7.18-7.29,58.2,58.2,0,0,0-7.18,7.29"/><path class="cls-1" d="M-260,94.36S-288.25,149-218.3,165.79l-6.28,2.86s25.31,7.81,40.26-4.48a44.13,44.13,0,0,0,6.29-6.59,57,57,0,0,0-5.16,13.71c-2.88,14-21.1,33.36-23.05,40.86s-3.31,50.62-1.6,51.51l15.49,8s-1.71-40.14.57-42a78.65,78.65,0,0,0,11-12.28c-2.92,7.32-5.92,13.22-7.63,14-4,1.85-1.54,50.23-.1,51.85s21.33,12.33,25.84,12-7-16.69-7-16.69,4.24-31.83,3.46-37.9c-.73-5.67,36.32-23.38,50.47-41.52l6.3,2c40,11.28,30.87,31.46,73.21,33.92,2.45.14-18.26,47.69-22,57.52s-12.14,13.35-12.36,17.16-1.31,20.26-1.53,23.2,19.06,12.91,22,11.39-3.05-17.72-3-20.31S-14,253.51-14,253.51s-31.39,63.15-34.16,66.08,2.26,21.67,2.26,21.67L-33,348.37a1.08,1.08,0,0,0,1.49-1.43c-1.19-2.36-2.29-9.16-5.6-11.31-2.23-1.45,2.51-8.59,2.51-8.59S-21.31,303-15,294.42s24.74-43.9,37-50.67c4.21-2.33,9.5-4.85,15.49-8.68.29,0,.59-.09.89-.16,20.15-4.12,34.82-29.68,34.82-29.68S67.24,223.41,66.65,224s15-13.2,25.73-40.78,13-83.4,13-83.4,16-20.28,19.23-26,8.39-5.69,9.65-8.54-4.86-12.11-5.82-11.51-5.6,4.08-5.6,4.08l-4.66-1.53L118,60.07s-9.22,2.65-9.74,2.38.09-6.5,1.42-9.08a65.28,65.28,0,0,1,4.69-7l3.1,1.17.15-4.94a30.4,30.4,0,0,0,1.9-5.78c.47-2.59-3.78-9.15-3.78-9.15s.45-1.29-.45-5.47-3.74-5.42-6.82-1.56S98,32.08,92.81,37.47,81.53,45.37,68.31,49,47.94,67.55,45.83,68.53C23.5,78.84,15.12,95.69,14.58,96.72S31,100.57,31,100.57a64.62,64.62,0,0,1-11.5,14.92h0s-12.09,13.1-22.25,1.66c-8.59-9.68-27.16-15.79-27.16-15.79l4.62,5.4S-34,102.95-51,98.56s-30.41-17.1-30.41-17.1l1.59,7.87s-26.33-13.61-47-14.49-30.55,4.27-30,4.53,12.8,2.77,14.41,3c-2.39.17-27.31,5.78-41.53,28.81l9.94-4.89s-8,13.76-16.17,16.94a55.48,55.48,0,0,1-15,3.61l6.54,3.38s-19.09,2.34-29.73-5.77c0,0,7.68,9.33,6.46,9.44C-239.72,135.53-256.12,113.82-260,94.36Zm83.84,8.71a58.2,58.2,0,0,0-7.18,7.29A44.84,44.84,0,0,1-176.18,103.06Z"/></g></g><path d="M74,58.49a29,29,0,0,1,3.62-4.26"/><polygon class="cls-2" points="71.43 69.63 84.23 54.55 76.54 47.35 63.74 62.42 71.43 69.63"/><polygon class="cls-18" points="71.43 69.63 80.38 50.95 63.74 62.42 71.43 69.63"/></g></g></g><text class="cls-19" transform="translate(1.74 194.58)">FlameHound</text><g id="Layer_2-12" data-name="Layer 2"><g id="Layer_1-6" data-name="Layer 1"><circle cx="-99.62" cy="80.55" r="79.62"/><g class="cls-20"><g id="Layer_2-13" data-name="Layer 2"><g class="cls-21"><path class="cls-5" d="M107.42,156.35a3.87,3.87,0,0,1,4.44.41l4.58,3.94s1.64-.36,3.56-.58a6,6,0,0,0-.77,3.35l4.37,3.47s5-19.59,10.86-22.18,6.36-7,8.85-4.49,11.55,24.64,12,31.78,19.14,17,19.31,31.37-1.74,16.69,2.56,24.16,10.83,8.86,7.74,13.79-12.53,5.3-12.53,5.3,2.62,26.49,5.71,39.21,16.11,15.58,24.35,31.44,56.81,45.32,71.45,70.29,16.64,62.25,27.4,76,25,9.56,25,9.56-7,7-14.9,8.25c0,0,21.37,10.08,37.64.12,0,0-11.89,12.71-18.25,14.73,0,0,27.16,8.24,35.8-5.66,0,0-23.77,53.45-70.12,30,0,0,3,6.38,7.18,8.55,0,0-38.88-8-47.22-44.23q-.76-3.29-1.34-6.27c-2.88,4.33-5.81,8.56-8.14,11.51-4.88,6.2-.84,33.41-5.54,40.64s-17.59,36.83-21,36-27.11-12.08-25.15-14.94,16.74-2.46,18-6.67,10.65-20.6,8.06-27.74c-2.26-6.23-11.18-28.78-15.07-44.28-11.32-.58-12.52,1-12.3,8.38.26,8.84,16.13,14.62,10.42,24.72S163.14,543,157.8,540.26s-29.45-9.42-27.08-14,10.06-5.43,15.62-5,29.8-16.5,28.11-19.78S158,466.9,161.82,455.82s18.06-32.17,18.06-32.17-8-3.9-20.56-10.69c-10.2-5.52-13.81-8.39-21.68-16-2.47,4-9,13.85-10.43,15.27-4.87,4.74-36.08,40.8-40.88,40.74s-29.42-11.34-29-13.07S68.24,431.49,75.8,431s8-2.16,8.56-3.31,22.6-24.08,24.09-34.43c.47-3.25,1.45-9.83,2.52-17.85a30.91,30.91,0,0,1-3-5.61s-13.94,26.29-18.81,31-36.08,40.8-40.88,40.74-29.42-11.34-29-13.06,10.92-8.37,18.48-8.81,8-2.16,8.56-3.31S69,392.34,70.44,382s8.22-54.24,6.15-71.74S89.27,267,88.69,253.18s16.13-28.4,16-34.74,5.92-33.43,1.7-40.69-4.51-14.18-2.64-17.8a9,9,0,0,1,3.64-3.6"/><path class="cls-1" d="M107.42,156.35a3.87,3.87,0,0,1,4.44.41l4.58,3.94s1.64-.36,3.56-.58a6,6,0,0,0-.77,3.35l4.37,3.47s5-19.59,10.86-22.18,6.36-7,8.85-4.49,11.55,24.64,12,31.78,19.14,17,19.31,31.37-1.74,16.69,2.56,24.16,10.83,8.86,7.74,13.79-12.53,5.3-12.53,5.3,2.62,26.49,5.71,39.21,16.11,15.58,24.35,31.44,56.81,45.32,71.45,70.29,16.64,62.25,27.4,76,25,9.56,25,9.56-7,7-14.9,8.25c0,0,21.37,10.08,37.64.12,0,0-11.89,12.71-18.25,14.73,0,0,27.16,8.24,35.8-5.66,0,0-23.77,53.45-70.12,30,0,0,3,6.38,7.18,8.55,0,0-38.88-8-47.22-44.23q-.76-3.29-1.34-6.27c-2.88,4.33-5.81,8.56-8.14,11.51-4.88,6.2-.84,33.41-5.54,40.64s-17.59,36.83-21,36-27.11-12.08-25.15-14.94,16.74-2.46,18-6.67,10.65-20.6,8.06-27.74c-2.26-6.23-11.18-28.78-15.07-44.28-11.32-.58-12.52,1-12.3,8.38.26,8.84,16.13,14.62,10.42,24.72S163.14,543,157.8,540.26s-29.45-9.42-27.08-14,10.06-5.43,15.62-5,29.8-16.5,28.11-19.78S158,466.9,161.82,455.82s18.06-32.17,18.06-32.17-8-3.9-20.56-10.69c-10.2-5.52-13.81-8.39-21.68-16-2.47,4-9,13.85-10.43,15.27-4.87,4.74-36.08,40.8-40.88,40.74s-29.42-11.34-29-13.07S68.24,431.49,75.8,431s8-2.16,8.56-3.31,22.6-24.08,24.09-34.43c.47-3.25,1.45-9.83,2.52-17.85a30.91,30.91,0,0,1-3-5.61s-13.94,26.29-18.81,31-36.08,40.8-40.88,40.74-29.42-11.34-29-13.06,10.92-8.37,18.48-8.81,8-2.16,8.56-3.31S69,392.34,70.44,382s8.22-54.24,6.15-71.74S89.27,267,88.69,253.18s16.13-28.4,16-34.74,5.92-33.43,1.7-40.69-4.51-14.18-2.64-17.8A9,9,0,0,1,107.42,156.35Z"/></g></g></g><circle class="cls-1" cx="-99.62" cy="80.55" r="79.62"/></g></g></g></g></svg>