<svg id="Layer_3" data-name="Layer 3" xmlns="http://www.w3.org/2000/svg" xmlns:xlink="http://www.w3.org/1999/xlink" viewBox="0 0 159.62 196.56"><defs><style>.cls-1,.cls-2{fill:none;}.cls-1,.cls-3,.cls-4{stroke:#000;stroke-miterlimit:10;}.cls-4,.cls-8{fill:#010101;}.cls-5{fill:#ff6f00;}.cls-6{clip-path:url(#clip-path);}.cls-7{clip-path:url(#clip-path-2);}.cls-9{clip-path:url(#clip-path-3);}.cls-10{clip-path:url(#clip-path-4);}.cls-11{clip-path:url(#clip-path-5);}.cls-12{clip-path:url(#clip-path-6);}.cls-13{fill:#fff;}.cls-14{clip-path:url(#clip-path-7);}.cls-15{clip-path:url(#clip-path-8);}.cls-16{fill:#1d1d1d;}.cls-17{font-size:33px;font-family:Oswald-Medium, Oswald;}.cls-18{clip-path:url(#clip-path-9);}.cls-19{clip-path:url(#clip-path-10);}.cls-20{clip-path:url(#clip-path-11);}.cls-21{clip-path:url(#clip-path-12);}</style><clipPath id="clip-path"><circle class="cls-1" cx="80.38" cy="-99.45" r="79.62"/></clipPath><clipPath id="clip-path-2"><rect class="cls-2" x="-736.26" y="-256.07" width="1394.82" height="1394.82" transform="translate(-413.06 204.15) rotate(-62.66)"/></clipPath><clipPath id="clip-path-3"><circle class="cls-4" cx="260.38" cy="-99.45" r="79.62"/></clipPath><clipPath id="clip-path-4"><rect class="cls-2" x="-556.26" y="-256.07" width="1394.82" height="1394.82" transform="translate(-315.72 364.05) rotate(-62.66)"/></clipPath><clipPath id="clip-path-5"><circle class="cls-5" cx="440.38" cy="-99.45" r="79.62"/></clipPath><clipPath id="clip-path-6"><rect class="cls-2" x="-376.26" y="-256.07" width="1394.82" height="1394.82" transform="translate(-218.38 523.95) rotate(-62.66)"/></clipPath><clipPath id="clip-path-7"><circle class="cls-1" cx="80" cy="80.55" r="79.62"/></clipPath><clipPath id="clip-path-8"><rect class="cls-2" x="-736.65" y="-76.07" width="1394.82" height="1394.82" transform="translate(-573.16 301.15) rotate(-62.66)"/></clipPath><clipPath id="clip-path-9"><circle class="cls-5" cx="439.23" cy="80.55" r="79.62"/></clipPath><clipPath id="clip-path-10"><rect class="cls-2" x="-377.41" y="-76.07" width="1394.82" height="1394.82" transform="translate(-378.9 620.26) rotate(-62.66)"/></clipPath><clipPath id="clip-path-11"><circle class="cls-3" cx="259.62" cy="80.55" r="79.62"/></clipPath><clipPath id="clip-path-12"><rect class="cls-2" x="-557.03" y="-76.07" width="1394.82" height="1394.82" transform="translate(-476.03 460.7) rotate(-62.66)"/></clipPath></defs><title>FlameHound Logo with Transparency + Text</title><g id="Layer_2" data-name="Layer 2"><g id="Layer_4" data-name="Layer 4"><g id="Layer_2-2" data-name="Layer 2"><g id="Layer_1" data-name="Layer 1"><g class="cls-6"><g id="Layer_2-3" data-name="Layer 2"><g class="cls-7"><path id="_Compound_Path_" data-name="&lt;Compound Path&gt;" class="cls-5" d="M-221.47-46.14c-17.87,1.67-34.27-20-38.17-39.5,0,0-28.23,54.61,41.72,71.43l-6.28,2.86s25.31,7.81,40.26-4.48a44.13,44.13,0,0,0,6.29-6.59A57,57,0,0,0-182.8-8.71c-2.88,14-21.1,33.36-23.05,40.86s-3.31,50.62-1.6,51.51l15.49,8s-1.71-40.14.57-42a78.65,78.65,0,0,0,11-12.28c-2.92,7.32-5.92,13.22-7.63,14-4,1.85-1.54,50.23-.1,51.85s21.33,12.33,25.84,12-7-16.69-7-16.69,4.24-31.83,3.46-37.9c-.73-5.67,36.32-23.38,50.47-41.52l6.3,2c40,11.28,30.87,31.46,73.21,33.92,2.45.14-18.26,47.69-22,57.52S-70,125.93-70.23,129.74s-1.31,20.26-1.53,23.2,19.06,12.91,22,11.39-3.05-17.72-3-20.31,39.11-70.5,39.11-70.5S-45,136.66-47.8,139.59s2.26,21.67,2.26,21.67l12.88,7.11a1.08,1.08,0,0,0,1.49-1.43c-1.19-2.36-2.29-9.16-5.6-11.31C-39,154.17-34.25,147-34.25,147S-20.93,123-14.65,114.42s24.74-43.9,37-50.67c4.21-2.33,9.5-4.85,15.49-8.68.29,0,.59-.09.89-.16C58.86,50.8,73.53,25.24,73.53,25.24S67.62,43.41,67,44,82,30.79,92.77,3.21s13-83.4,13-83.4,16-20.28,19.23-26,8.39-5.69,9.65-8.54-4.86-12.11-5.82-11.51-5.6,4.08-5.6,4.08l-4.66-1.53-.22,3.81s-9.22,2.65-9.74,2.38.09-6.5,1.42-9.08a65.28,65.28,0,0,1,4.69-7l3.1,1.17.15-4.94a30.4,30.4,0,0,0,1.9-5.78c.47-2.59-3.78-9.15-3.78-9.15s.45-1.29-.45-5.47-3.74-5.42-6.82-1.56S98.38-147.92,93.2-142.53,81.92-134.63,68.7-131s-20.37,18.54-22.48,19.52C23.89-101.16,15.5-84.31,15-83.28s16.39,3.85,16.39,3.85a64.62,64.62,0,0,1-11.5,14.92h0S7.77-51.41-2.39-62.85C-11-72.53-29.56-78.64-29.56-78.64l4.62,5.4s-8.71-3.81-25.63-8.2S-81-98.54-81-98.54l1.59,7.87s-26.33-13.61-47-14.49-30.55,4.27-30,4.53,12.8,2.77,14.41,3c-2.39.17-27.31,5.78-41.53,28.81l9.94-4.89s-8,13.76-16.17,16.94a55.48,55.48,0,0,1-15,3.61l6.54,3.38s-19.09,2.34-29.73-5.77c0,0,7.68,9.33,6.46,9.44M-183-69.64a44.84,44.84,0,0,1,7.18-7.29A58.2,58.2,0,0,0-183-69.64"/><path class="cls-1" d="M-259.64-85.64S-287.87-31-217.91-14.21l-6.28,2.86s25.31,7.81,40.26-4.48a44.13,44.13,0,0,0,6.29-6.59A57,57,0,0,0-182.8-8.71c-2.88,14-21.1,33.36-23.05,40.86s-3.31,50.62-1.6,51.51l15.49,8s-1.71-40.14.57-42a78.65,78.65,0,0,0,11-12.28c-2.92,7.32-5.92,13.22-7.63,14-4,1.85-1.54,50.23-.1,51.85s21.33,12.33,25.84,12-7-16.69-7-16.69,4.24-31.83,3.46-37.9c-.73-5.67,36.32-23.38,50.47-41.52l6.3,2c40,11.28,30.87,31.46,73.21,33.92,2.45.14-18.26,47.69-22,57.52S-70,125.93-70.23,129.74s-1.31,20.26-1.53,23.2,19.06,12.91,22,11.39-3.05-17.72-3-20.31,39.11-70.5,39.11-70.5S-45,136.66-47.8,139.59s2.26,21.67,2.26,21.67l12.88,7.11a1.08,1.08,0,0,0,1.49-1.43c-1.19-2.36-2.29-9.16-5.6-11.31C-39,154.17-34.25,147-34.25,147S-20.93,123-14.65,114.42s24.74-43.9,37-50.67c4.21-2.33,9.5-4.85,15.49-8.68.29,0,.59-.09.89-.16C58.86,50.8,73.53,25.24,73.53,25.24S67.62,43.41,67,44,82,30.79,92.77,3.21s13-83.4,13-83.4,16-20.28,19.23-26,8.39-5.69,9.65-8.54-4.86-12.11-5.82-11.51-5.6,4.08-5.6,4.08l-4.66-1.53-.22,3.81s-9.22,2.65-9.74,2.38.09-6.5,1.42-9.08a65.28,65.28,0,0,1,4.69-7l3.1,1.17.15-4.94a30.4,30.4,0,0,0,1.9-5.78c.47-2.59-3.78-9.15-3.78-9.15s.45-1.29-.45-5.47-3.74-5.42-6.82-1.56S98.38-147.92,93.2-142.53,81.92-134.63,68.7-131s-20.37,18.54-22.48,19.52C23.89-101.16,15.5-84.31,15-83.28s16.39,3.85,16.39,3.85a64.62,64.62,0,0,1-11.5,14.92h0S7.77-51.41-2.39-62.85C-11-72.53-29.56-78.64-29.56-78.64l4.62,5.4s-8.71-3.81-25.63-8.2S-81-98.54-81-98.54l1.59,7.87s-26.33-13.61-47-14.49-30.55,4.27-30,4.53,12.8,2.77,14.41,3c-2.39.17-27.31,5.78-41.53,28.81l9.94-4.89s-8,13.76-16.17,16.94a55.48,55.48,0,0,1-15,3.61l6.54,3.38s-19.09,2.34-29.73-5.77c0,0,7.68,9.33,6.46,9.44C-239.34-44.47-255.74-66.18-259.64-85.64Zm83.84,8.71A58.2,58.2,0,0,0-183-69.64,44.84,44.84,0,0,1-175.79-76.94Z"/></g></g></g><circle class="cls-1" cx="80.38" cy="-99.45" r="79.62"/></g></g><g id="Layer_2-4" data-name="Layer 2"><g id="Layer_1-2" data-name="Layer 1"><circle class="cls-8" cx="260.38" cy="-99.45" r="79.62"/><g class="cls-9"><g id="Layer_2-5" data-name="Layer 2"><g class="cls-10"><path id="_Compound_Path_2" data-name="&lt;Compound Path&gt;" class="cls-5" d="M-41.47-46.14c-17.87,1.67-34.27-20-38.17-39.5,0,0-28.23,54.61,41.72,71.43l-6.28,2.86s25.31,7.81,40.26-4.48a44.13,44.13,0,0,0,6.29-6.59A57,57,0,0,0-2.8-8.71c-2.88,14-21.1,33.36-23.05,40.86s-3.31,50.62-1.6,51.51l15.49,8s-1.71-40.14.57-42a78.65,78.65,0,0,0,11-12.28c-2.92,7.32-5.92,13.22-7.63,14-4,1.85-1.54,50.23-.1,51.85s21.33,12.33,25.84,12-7-16.69-7-16.69S15,66.77,14.18,60.7C13.45,55,50.5,37.32,64.65,19.17l6.3,2c40,11.28,30.87,31.46,73.21,33.92,2.45.14-18.26,47.69-22,57.52S110,125.93,109.77,129.74s-1.31,20.26-1.53,23.2,19.06,12.91,22,11.39-3.05-17.72-3-20.31,39.11-70.5,39.11-70.5S135,136.66,132.2,139.59s2.26,21.67,2.26,21.67l12.88,7.11a1.08,1.08,0,0,0,1.49-1.43c-1.19-2.36-2.29-9.16-5.6-11.31-2.23-1.45,2.51-8.59,2.51-8.59s13.32-24.08,19.61-32.61,24.74-43.9,37-50.67c4.21-2.33,9.5-4.85,15.49-8.68.29,0,.59-.09.89-.16,20.15-4.12,34.82-29.68,34.82-29.68S247.62,43.41,247,44s15-13.2,25.73-40.78,13-83.4,13-83.4,16-20.28,19.23-26,8.39-5.69,9.65-8.54-4.86-12.11-5.82-11.51-5.6,4.08-5.6,4.08l-4.66-1.53-.22,3.81s-9.22,2.65-9.74,2.38.09-6.5,1.42-9.08a65.28,65.28,0,0,1,4.69-7l3.1,1.17.15-4.94a30.4,30.4,0,0,0,1.9-5.78c.47-2.59-3.78-9.15-3.78-9.15s.45-1.29-.45-5.47-3.74-5.42-6.82-1.56-10.47,11.38-15.65,16.77-11.28,7.91-24.5,11.54-20.37,18.54-22.48,19.52C203.89-101.16,195.5-84.31,195-83.28s16.39,3.85,16.39,3.85a64.62,64.62,0,0,1-11.5,14.92h0s-12.09,13.1-22.25,1.66c-8.59-9.68-27.16-15.79-27.16-15.79l4.62,5.4s-8.71-3.81-25.63-8.2S99-98.54,99-98.54l1.59,7.87s-26.33-13.61-47-14.49-30.55,4.27-30,4.53,12.8,2.77,14.41,3c-2.39.17-27.31,5.78-41.53,28.81l9.94-4.89S-1.6-60-9.79-56.8a55.48,55.48,0,0,1-15,3.61l6.54,3.38s-19.09,2.34-29.73-5.77c0,0,7.68,9.33,6.46,9.44M-3-69.64a44.84,44.84,0,0,1,7.18-7.29A58.2,58.2,0,0,0-3-69.64"/><path class="cls-1" d="M-79.64-85.64S-107.87-31-37.91-14.21l-6.28,2.86s25.31,7.81,40.26-4.48a44.13,44.13,0,0,0,6.29-6.59A57,57,0,0,0-2.8-8.71c-2.88,14-21.1,33.36-23.05,40.86s-3.31,50.62-1.6,51.51l15.49,8s-1.71-40.14.57-42a78.65,78.65,0,0,0,11-12.28c-2.92,7.32-5.92,13.22-7.63,14-4,1.85-1.54,50.23-.1,51.85s21.33,12.33,25.84,12-7-16.69-7-16.69S15,66.77,14.18,60.7C13.45,55,50.5,37.32,64.65,19.17l6.3,2c40,11.28,30.87,31.46,73.21,33.92,2.45.14-18.26,47.69-22,57.52S110,125.93,109.77,129.74s-1.31,20.26-1.53,23.2,19.06,12.91,22,11.39-3.05-17.72-3-20.31,39.11-70.5,39.11-70.5S135,136.66,132.2,139.59s2.26,21.67,2.26,21.67l12.88,7.11a1.08,1.08,0,0,0,1.49-1.43c-1.19-2.36-2.29-9.16-5.6-11.31-2.23-1.45,2.51-8.59,2.51-8.59s13.32-24.08,19.61-32.61,24.74-43.9,37-50.67c4.21-2.33,9.5-4.85,15.49-8.68.29,0,.59-.09.89-.16,20.15-4.12,34.82-29.68,34.82-29.68S247.62,43.41,247,44s15-13.2,25.73-40.78,13-83.4,13-83.4,16-20.28,19.23-26,8.39-5.69,9.65-8.54-4.86-12.11-5.82-11.51-5.6,4.08-5.6,4.08l-4.66-1.53-.22,3.81s-9.22,2.65-9.74,2.38.09-6.5,1.42-9.08a65.28,65.28,0,0,1,4.69-7l3.1,1.17.15-4.94a30.4,30.4,0,0,0,1.9-5.78c.47-2.59-3.78-9.15-3.78-9.15s.45-1.29-.45-5.47-3.74-5.42-6.82-1.56-10.47,11.38-15.65,16.77-11.28,7.91-24.5,11.54-20.37,18.54-22.48,19.52C203.89-101.16,195.5-84.31,195-83.28s16.39,3.85,16.39,3.85a64.62,64.62,0,0,1-11.5,14.92h0s-12.09,13.1-22.25,1.66c-8.59-9.68-27.16-15.79-27.16-15.79l4.62,5.4s-8.71-3.81-25.63-8.2S99-98.54,99-98.54l1.59,7.87s-26.33-13.61-47-14.49-30.55,4.27-30,4.53,12.8,2.77,14.41,3c-2.39.17-27.31,5.78-41.53,28.81l9.94-4.89S-1.6-60-9.79-56.8a55.48,55.48,0,0,1-15,3.61l6.54,3.38s-19.09,2.34-29.73-5.77c0,0,7.68,9.33,6.46,9.44C-59.34-44.47-75.74-66.18-79.64-85.64ZM4.21-76.94A58.2,58.2,0,0,0-3-69.64,44.84,44.84,0,0,1,4.21-76.94Z"/><path class="cls-5" d="M-194.27,150.17c-24.34,12.15-19.47,39.48-17.84,39.06,3.47-.89,11.82-9.2,11.82-9.2-13.28,24.93,3.85,38.11,3.85,38.11a41.38,41.38,0,0,1,2.86-19.46c-.48,20.16,31.57,26.43,31.57,26.43A39.6,39.6,0,0,0-149.63,221l-9.7-.55c.33-.57,7.55-4.41,14.42-7.24,17.21-7.08,53.27,1.16,53.27,1.16h0c33,6.17,62.39,31.44,70,35.73,8.93,5,25.37,2,27.71,1.58.1-.08,21.79-.31,21.79-.31-.47-.56-.68-14.43-.68-14.43s12.4,4.87,21.54,3.22,31.52-4.24,42.07-2,13.95,9,19.75,7.91,19.07-2.36,20.79,1.95,1.48,7.05-2.63,10.51-6.54,9.66-9.09,11.17l-2.55,1.51s2.23,2.27.84,4.4-11.37,9.59-16.6,14S82.36,310,57.48,327a90.7,90.7,0,0,1-16.26,8.67s-46.47,29-57.3,41.3-22.22,12.22-35.57,25.82-31.92,36.76-33.52,40.36,10.13,23.8,8.45,25.63-4.17-2.53-9.2-2.71-12.94-7.83-12.94-7.83l-1.75-15s31.41-57.6,36.57-60.47,27.82-12.54,27.82-12.54-28.61,8.65-30.71,11.65-16,27-21.67,35.84-15.81,23.51-15.84,26.06,2.23,13.89-.07,13.93-.45-2.84-6.64-4a34.27,34.27,0,0,1-13-5.89c-1.13-1-2.38-1.72-1.32-5.36s17.14-32.59,22.75-45.16,16.48-45.63,16.48-45.63-7.72-1.23-19.15-10.77c-8.15,7.08-21.78,16.59-38,19.63-8.74,7.74-14.46,11.86-15.38,13.39s2.07,32.42,4.29,35.66,13.16,15.95,10.87,17.22-3.28-2.75-6.91-3-4.84-3.31-8-3.71-5.23-3.92-7.73-5.44-5.17-4.65-5.5-6-9.29-38.69-6-44.7,26.28-18.32,27.7-25.06,4-17.34,4-17.34-20.54,21.41-29.26,24.5-14.19,5.87-16.32,10.65S-204.87,389-204,392.61s4.53,14.52,1.91,14.45-3.17-2.3-5.57-3.37-6.79-2.59-11-6.29-9.25-4.83-8.84-8,20.86-47.07,26.29-52.9,16.45-14,19.06-26.49a239,239,0,0,1,13.72-42.47c-28.85.54-57.52-21.89-57.52-21.89,11.36,1.56,16.15,1.67,16.15,1.67s-33.79-19.43-29.74-53.84,45.29-43.32,45.29-43.32"/><path class="cls-1" d="M-194.27,150.17c-24.34,12.15-19.47,39.48-17.84,39.06,3.47-.89,11.82-9.2,11.82-9.2-13.28,24.93,3.85,38.11,3.85,38.11a41.38,41.38,0,0,1,2.86-19.46c-.48,20.16,31.57,26.43,31.57,26.43A39.6,39.6,0,0,0-149.63,221l-9.7-.55c.33-.57,7.55-4.41,14.42-7.24,17.21-7.08,53.27,1.16,53.27,1.16h0c33,6.17,62.39,31.44,70,35.73,8.93,5,25.37,2,27.71,1.58.1-.08,21.79-.31,21.79-.31-.47-.56-.68-14.43-.68-14.43s12.4,4.87,21.54,3.22,31.52-4.24,42.07-2,13.95,9,19.75,7.91,19.07-2.36,20.79,1.95,1.48,7.05-2.63,10.51-6.54,9.66-9.09,11.17l-2.55,1.51s2.23,2.27.84,4.4-11.37,9.59-16.6,14S82.36,310,57.48,327a90.7,90.7,0,0,1-16.26,8.67s-46.47,29-57.3,41.3-22.22,12.22-35.57,25.82-31.92,36.76-33.52,40.36,10.13,23.8,8.45,25.63-4.17-2.53-9.2-2.71-12.94-7.83-12.94-7.83l-1.75-15s31.41-57.6,36.57-60.47,27.82-12.54,27.82-12.54-28.61,8.65-30.71,11.65-16,27-21.67,35.84-15.81,23.51-15.84,26.06,2.23,13.89-.07,13.93-.45-2.84-6.64-4a34.27,34.27,0,0,1-13-5.89c-1.13-1-2.38-1.72-1.32-5.36s17.14-32.59,22.75-45.16,16.48-45.63,16.48-45.63-7.72-1.23-19.15-10.77c-8.15,7.08-21.78,16.59-38,19.63-8.74,7.74-14.46,11.86-15.38,13.39s2.07,32.42,4.29,35.66,13.16,15.95,10.87,17.22-3.28-2.75-6.91-3-4.84-3.31-8-3.71-5.23-3.92-7.73-5.44-5.17-4.65-5.5-6-9.29-38.69-6-44.7,26.28-18.32,27.7-25.06,4-17.34,4-17.34-20.54,21.41-29.26,24.5-14.19,5.87-16.32,10.65S-204.87,389-204,392.61s4.53,14.52,1.91,14.45-3.17-2.3-5.57-3.37-6.79-2.59-11-6.29-9.25-4.83-8.84-8,20.86-47.07,26.29-52.9,16.45-14,19.06-26.49a239,239,0,0,1,13.72-42.47c-28.85.54-57.52-21.89-57.52-21.89,11.36,1.56,16.15,1.67,16.15,1.67s-33.79-19.43-29.74-53.84S-194.27,150.17-194.27,150.17Z"/></g></g></g><circle class="cls-1" cx="260.38" cy="-99.45" r="79.62"/></g></g><g id="Layer_2-6" data-name="Layer 2"><g id="Layer_1-3" data-name="Layer 1"><circle class="cls-5" cx="440.38" cy="-99.45" r="79.62"/><g class="cls-11"><g id="Layer_2-7" data-name="Layer 2"><g class="cls-12"><path id="_Compound_Path_3" data-name="&lt;Compound Path&gt;" class="cls-13" d="M138.53-46.14c-17.87,1.67-34.27-20-38.17-39.5,0,0-28.23,54.61,41.72,71.43l-6.28,2.86s25.31,7.81,40.26-4.48a44.13,44.13,0,0,0,6.29-6.59A57,57,0,0,0,177.2-8.71c-2.88,14-21.1,33.36-23.05,40.86s-3.31,50.62-1.6,51.51l15.49,8s-1.71-40.14.57-42a78.65,78.65,0,0,0,11-12.28c-2.92,7.32-5.92,13.22-7.63,14-4,1.85-1.54,50.23-.1,51.85s21.33,12.33,25.84,12-7-16.69-7-16.69,4.24-31.83,3.46-37.9c-.73-5.67,36.32-23.38,50.47-41.52l6.3,2c40,11.28,30.87,31.46,73.21,33.92,2.45.14-18.26,47.69-22,57.52S290,125.93,289.77,129.74s-1.31,20.26-1.53,23.2,19.06,12.91,22,11.39-3.05-17.72-3-20.31,39.11-70.5,39.11-70.5S315,136.66,312.2,139.59s2.26,21.67,2.26,21.67l12.88,7.11a1.08,1.08,0,0,0,1.49-1.43c-1.19-2.36-2.29-9.16-5.6-11.31-2.23-1.45,2.51-8.59,2.51-8.59s13.32-24.08,19.61-32.61,24.74-43.9,37-50.67c4.21-2.33,9.5-4.85,15.49-8.68.29,0,.59-.09.89-.16,20.15-4.12,34.82-29.68,34.82-29.68S427.62,43.41,427,44s15-13.2,25.73-40.78,13-83.4,13-83.4,16-20.28,19.23-26,8.39-5.69,9.65-8.54-4.86-12.11-5.82-11.51-5.6,4.08-5.6,4.08l-4.66-1.53-.22,3.81s-9.22,2.65-9.74,2.38.09-6.5,1.42-9.08a65.28,65.28,0,0,1,4.69-7l3.1,1.17.15-4.94a30.4,30.4,0,0,0,1.9-5.78c.47-2.59-3.78-9.15-3.78-9.15s.45-1.29-.45-5.47-3.74-5.42-6.82-1.56-10.47,11.38-15.65,16.77-11.28,7.91-24.5,11.54-20.37,18.54-22.48,19.52C383.89-101.16,375.5-84.31,375-83.28s16.39,3.85,16.39,3.85a64.62,64.62,0,0,1-11.5,14.92h0s-12.09,13.1-22.25,1.66c-8.59-9.68-27.16-15.79-27.16-15.79l4.62,5.4s-8.71-3.81-25.63-8.2S279-98.54,279-98.54l1.59,7.87s-26.33-13.61-47-14.49-30.55,4.27-30,4.53,12.8,2.77,14.41,3c-2.39.17-27.31,5.78-41.53,28.81l9.94-4.89S178.4-60,170.21-56.8a55.48,55.48,0,0,1-15,3.61l6.54,3.38s-19.09,2.34-29.73-5.77c0,0,7.68,9.33,6.46,9.44M177-69.64a44.84,44.84,0,0,1,7.18-7.29A58.2,58.2,0,0,0,177-69.64"/><path class="cls-1" d="M100.36-85.64S72.13-31,142.09-14.21l-6.28,2.86s25.31,7.81,40.26-4.48a44.13,44.13,0,0,0,6.29-6.59A57,57,0,0,0,177.2-8.71c-2.88,14-21.1,33.36-23.05,40.86s-3.31,50.62-1.6,51.51l15.49,8s-1.71-40.14.57-42a78.65,78.65,0,0,0,11-12.28c-2.92,7.32-5.92,13.22-7.63,14-4,1.85-1.54,50.23-.1,51.85s21.33,12.33,25.84,12-7-16.69-7-16.69,4.24-31.83,3.46-37.9c-.73-5.67,36.32-23.38,50.47-41.52l6.3,2c40,11.28,30.87,31.46,73.21,33.92,2.45.14-18.26,47.69-22,57.52S290,125.93,289.77,129.74s-1.31,20.26-1.53,23.2,19.06,12.91,22,11.39-3.05-17.72-3-20.31,39.11-70.5,39.11-70.5S315,136.66,312.2,139.59s2.26,21.67,2.26,21.67l12.88,7.11a1.08,1.08,0,0,0,1.49-1.43c-1.19-2.36-2.29-9.16-5.6-11.31-2.23-1.45,2.51-8.59,2.51-8.59s13.32-24.08,19.61-32.61,24.74-43.9,37-50.67c4.21-2.33,9.5-4.85,15.49-8.68.29,0,.59-.09.89-.16,20.15-4.12,34.82-29.68,34.82-29.68S427.62,43.41,427,44s15-13.2,25.73-40.78,13-83.4,13-83.4,16-20.28,19.23-26,8.39-5.69,9.65-8.54-4.86-12.11-5.82-11.51-5.6,4.08-5.6,4.08l-4.66-1.53-.22,3.81s-9.22,2.65-9.74,2.38.09-6.5,1.42-9.08a65.28,65.28,0,0,1,4.69-7l3.1,1.17.15-4.94a30.4,30.4,0,0,0,1.9-5.78c.47-2.59-3.78-9.15-3.78-9.15s.45-1.29-.45-5.47-3.74-5.42-6.82-1.56-10.47,11.38-15.65,16.77-11.28,7.91-24.5,11.54-20.37,18.54-22.48,19.52C383.89-101.16,375.5-84.31,375-83.28s16.39,3.85,16.39,3.85a64.62,64.62,0,0,1-11.5,14.92h0s-12.09,13.1-22.25,1.66c-8.59-9.68-27.16-15.79-27.16-15.79l4.62,5.4s-8.71-3.81-25.63-8.2S279-98.54,279-98.54l1.59,7.87s-26.33-13.61-47-14.49-30.55,4.27-30,4.53,12.8,2.77,14.41,3c-2.39.17-27.31,5.78-41.53,28.81l9.94-4.89S178.4-60,170.21-56.8a55.48,55.48,0,0,1-15,3.61l6.54,3.38s-19.09,2.34-29.73-5.77c0,0,7.68,9.33,6.46,9.44C120.66-44.47,104.26-66.18,100.36-85.64Zm83.84,8.71A58.2,58.2,0,0,0,177-69.64,44.84,44.84,0,0,1,184.21-76.94Z"/><path class="cls-5" d="M-14.27,150.17c-24.34,12.15-19.47,39.48-17.84,39.06,3.47-.89,11.82-9.2,11.82-9.2-13.28,24.93,3.85,38.11,3.85,38.11a41.38,41.38,0,0,1,2.86-19.46C-14.05,218.85,18,225.12,18,225.12A39.6,39.6,0,0,0,30.37,221l-9.7-.55c.33-.57,7.55-4.41,14.42-7.24,17.21-7.08,53.27,1.16,53.27,1.16h0c33,6.17,62.39,31.44,70,35.73,8.93,5,25.37,2,27.71,1.58.1-.08,21.79-.31,21.79-.31-.47-.56-.68-14.43-.68-14.43s12.4,4.87,21.54,3.22,31.52-4.24,42.07-2,13.95,9,19.75,7.91,19.07-2.36,20.79,1.95,1.48,7.05-2.63,10.51-6.54,9.66-9.09,11.17l-2.55,1.51s2.23,2.27.84,4.4-11.37,9.59-16.6,14S262.36,310,237.48,327a90.7,90.7,0,0,1-16.26,8.67s-46.47,29-57.3,41.3-22.22,12.22-35.57,25.82-31.92,36.76-33.52,40.36,10.13,23.8,8.45,25.63-4.17-2.53-9.2-2.71-12.94-7.83-12.94-7.83l-1.75-15s31.41-57.6,36.57-60.47,27.82-12.54,27.82-12.54-28.61,8.65-30.71,11.65-16,27-21.67,35.84-15.81,23.51-15.84,26.06,2.23,13.89-.07,13.93-.45-2.84-6.64-4a34.27,34.27,0,0,1-13-5.89c-1.13-1-2.38-1.72-1.32-5.36s17.14-32.59,22.75-45.16,16.48-45.63,16.48-45.63S86,350.42,74.56,340.88c-8.15,7.08-21.78,16.59-38,19.63-8.74,7.74-14.46,11.86-15.38,13.39s2.07,32.42,4.29,35.66,13.16,15.95,10.87,17.22-3.28-2.75-6.91-3-4.84-3.31-8-3.71-5.23-3.92-7.73-5.44-5.17-4.65-5.5-6-9.29-38.69-6-44.7,26.28-18.32,27.7-25.06,4-17.34,4-17.34S13.28,342.93,4.56,346s-14.19,5.87-16.32,10.65S-24.87,389-24,392.61s4.53,14.52,1.91,14.45-3.17-2.3-5.57-3.37-6.79-2.59-11-6.29-9.25-4.83-8.84-8,20.86-47.07,26.29-52.9S-4.78,322.5-2.17,310a239,239,0,0,1,13.72-42.47C-17.3,268.08-46,245.66-46,245.66c11.36,1.56,16.15,1.67,16.15,1.67s-33.79-19.43-29.74-53.84,45.29-43.32,45.29-43.32"/><path class="cls-1" d="M-14.27,150.17c-24.34,12.15-19.47,39.48-17.84,39.06,3.47-.89,11.82-9.2,11.82-9.2-13.28,24.93,3.85,38.11,3.85,38.11a41.38,41.38,0,0,1,2.86-19.46C-14.05,218.85,18,225.12,18,225.12A39.6,39.6,0,0,0,30.37,221l-9.7-.55c.33-.57,7.55-4.41,14.42-7.24,17.21-7.08,53.27,1.16,53.27,1.16h0c33,6.17,62.39,31.44,70,35.73,8.93,5,25.37,2,27.71,1.58.1-.08,21.79-.31,21.79-.31-.47-.56-.68-14.43-.68-14.43s12.4,4.87,21.54,3.22,31.52-4.24,42.07-2,13.95,9,19.75,7.91,19.07-2.36,20.79,1.95,1.48,7.05-2.63,10.51-6.54,9.66-9.09,11.17l-2.55,1.51s2.23,2.27.84,4.4-11.37,9.59-16.6,14S262.36,310,237.48,327a90.7,90.7,0,0,1-16.26,8.67s-46.47,29-57.3,41.3-22.22,12.22-35.57,25.82-31.92,36.76-33.52,40.36,10.13,23.8,8.45,25.63-4.17-2.53-9.2-2.71-12.94-7.83-12.94-7.83l-1.75-15s31.41-57.6,36.57-60.47,27.82-12.54,27.82-12.54-28.61,8.65-30.71,11.65-16,27-21.67,35.84-15.81,23.51-15.84,26.06,2.23,13.89-.07,13.93-.45-2.84-6.64-4a34.27,34.27,0,0,1-13-5.89c-1.13-1-2.38-1.72-1.32-5.36s17.14-32.59,22.75-45.16,16.48-45.63,16.48-45.63S86,350.42,74.56,340.88c-8.15,7.08-21.78,16.59-38,19.63-8.74,7.74-14.46,11.86-15.38,13.39s2.07,32.42,4.29,35.66,13.16,15.95,10.87,17.22-3.28-2.75-6.91-3-4.84-3.31-8-3.71-5.23-3.92-7.73-5.44-5.17-4.65-5.5-6-9.29-38.69-6-44.7,26.28-18.32,27.7-25.06,4-17.34,4-17.34S13.28,342.93,4.56,346s-14.19,5.87-16.32,10.65S-24.87,389-24,392.61s4.53,14.52,1.91,14.45-3.17-2.3-5.57-3.37-6.79-2.59-11-6.29-9.25-4.83-8.84-8,20.86-47.07,26.29-52.9S-4.78,322.5-2.17,310a239,239,0,0,1,13.72-42.47C-17.3,268.08-46,245.66-46,245.66c11.36,1.56,16.15,1.67,16.15,1.67s-33.79-19.43-29.74-53.84S-14.27,150.17-14.27,150.17Z"/></g></g></g></g></g><g id="Layer_2-8" data-name="Layer 2"><g id="Layer_1-4" data-name="Layer 1"><g class="cls-14"><g id="Layer_2-9" data-name="Layer 2"><g class="cls-15"><path id="_Compound_Path_4" data-name="&lt;Compound Path&gt;" class="cls-5" d="M-221.85,133.86c-17.87,1.67-34.27-20-38.17-39.5,0,0-28.23,54.61,41.72,71.43l-6.28,2.86s25.31,7.81,40.26-4.48a44.13,44.13,0,0,0,6.29-6.59,57,57,0,0,0-5.16,13.71c-2.88,14-21.1,33.36-23.05,40.86s-3.31,50.62-1.6,51.51l15.49,8s-1.71-40.14.57-42a78.65,78.65,0,0,0,11-12.28c-2.92,7.32-5.92,13.22-7.63,14-4,1.85-1.54,50.23-.1,51.85s21.33,12.33,25.84,12-7-16.69-7-16.69,4.24-31.83,3.46-37.9c-.73-5.67,36.32-23.38,50.47-41.52l6.3,2c40,11.28,30.87,31.46,73.21,33.92,2.45.14-18.26,47.69-22,57.52s-12.14,13.35-12.36,17.16-1.31,20.26-1.53,23.2,19.06,12.91,22,11.39-3.05-17.72-3-20.31S-14,253.51-14,253.51s-31.39,63.15-34.16,66.08,2.26,21.67,2.26,21.67L-33,348.37a1.08,1.08,0,0,0,1.49-1.43c-1.19-2.36-2.29-9.16-5.6-11.31-2.23-1.45,2.51-8.59,2.51-8.59S-21.31,303-15,294.42s24.74-43.9,37-50.67c4.21-2.33,9.5-4.85,15.49-8.68.29,0,.59-.09.89-.16,20.15-4.12,34.82-29.68,34.82-29.68S67.24,223.41,66.65,224s15-13.2,25.73-40.78,13-83.4,13-83.4,16-20.28,19.23-26,8.39-5.69,9.65-8.54-4.86-12.11-5.82-11.51-5.6,4.08-5.6,4.08l-4.66-1.53L118,60.07s-9.22,2.65-9.74,2.38.09-6.5,1.42-9.08a65.28,65.28,0,0,1,4.69-7l3.1,1.17.15-4.94a30.4,30.4,0,0,0,1.9-5.78c.47-2.59-3.78-9.15-3.78-9.15s.45-1.29-.45-5.47-3.74-5.42-6.82-1.56S98,32.08,92.81,37.47,81.53,45.37,68.31,49,47.94,67.55,45.83,68.53C23.5,78.84,15.12,95.69,14.58,96.72S31,100.57,31,100.57a64.62,64.62,0,0,1-11.5,14.92h0s-12.09,13.1-22.25,1.66c-8.59-9.68-27.16-15.79-27.16-15.79l4.62,5.4S-34,102.95-51,98.56s-30.41-17.1-30.41-17.1l1.59,7.87s-26.33-13.61-47-14.49-30.55,4.27-30,4.53,12.8,2.77,14.41,3c-2.39.17-27.31,5.78-41.53,28.81l9.94-4.89s-8,13.76-16.17,16.94a55.48,55.48,0,0,1-15,3.61l6.54,3.38s-19.09,2.34-29.73-5.77c0,0,7.68,9.33,6.46,9.44m38.49-23.5a44.84,44.84,0,0,1,7.18-7.29,58.2,58.2,0,0,0-7.18,7.29"/><path class="cls-1" d="M-260,94.36S-288.25,149-218.3,165.79l-6.28,2.86s25.31,7.81,40.26-4.48a44.13,44.13,0,0,0,6.29-6.59,57,57,0,0,0-5.16,13.71c-2.88,14-21.1,33.36-23.05,40.86s-3.31,50.62-1.6,51.51l15.49,8s-1.71-40.14.57-42a78.65,78.65,0,0,0,11-12.28c-2.92,7.32-5.92,13.22-7.63,14-4,1.85-1.54,50.23-.1,51.85s21.33,12.33,25.84,12-7-16.69-7-16.69,4.24-31.83,3.46-37.9c-.73-5.67,36.32-23.38,50.47-41.52l6.3,2c40,11.28,30.87,31.46,73.21,33.92,2.45.14-18.26,47.69-22,57.52s-12.14,13.35-12.36,17.16-1.31,20.26-1.53,23.2,19.06,12.91,22,11.39-3.05-17.72-3-20.31S-14,253.51-14,253.51s-31.39,63.15-34.16,66.08,2.26,21.67,2.26,21.67L-33,348.37a1.08,1.08,0,0,0,1.49-1.43c-1.19-2.36-2.29-9.16-5.6-11.31-2.23-1.45,2.51-8.59,2.51-8.59S-21.31,303-15,294.42s24.74-43.9,37-50.67c4.21-2.33,9.5-4.85,15.49-8.68.29,0,.59-.09.89-.16,20.15-4.12,34.82-29.68,34.82-29.68S67.24,223.41,66.65,224s15-13.2,25.73-40.78,13-83.4,13-83.4,16-20.28,19.23-26,8.39-5.69,9.65-8.54-4.86-12.11-5.82-11.51-5.6,4.08-5.6,4.08l-4.66-1.53L118,60.07s-9.22,2.65-9.74,2.38.09-6.5,1.42-9.08a65.28,65.28,0,0,1,4.69-7l3.1,1.17.15-4.94a30.4,30.4,0,0,0,1.9-5.78c.47-2.59-3.78-9.15-3.78-9.15s.45-1.29-.45-5.47-3.74-5.42-6.82-1.56S98,32.08,92.81,37.47,81.53,45.37,68.31,49,47.94,67.55,45.83,68.53C23.5,78.84,15.12,95.69,14.58,96.72S31,100.57,31,100.57a64.62,64.62,0,0,1-11.5,14.92h0s-12.09,13.1-22.25,1.66c-8.59-9.68-27.16-15.79-27.16-15.79l4.62,5.4S-34,102.95-51,98.56s-30.41-17.1-30.41-17.1l1.59,7.87s-26.33-13.61-47-14.49-30.55,4.27-30,4.53,12.8,2.77,14.41,3c-2.39.17-27.31,5.78-41.53,28.81l9.94-4.89s-8,13.76-16.17,16.94a55.48,55.48,0,0,1-15,3.61l6.54,3.38s-19.09,2.34-29.73-5.77c0,0,7.68,9.33,6.46,9.44C-239.72,135.53-256.12,113.82-260,94.36Zm83.84,8.71a58.2,58.2,0,0,0-7.18,7.29A44.84,44.84,0,0,1-176.18,103.06Z"/></g></g><path d="M74,58.49a29,29,0,0,1,3.62-4.26"/><polygon class="cls-2" points="71.43 69.63 84.23 54.55 76.54 47.35 63.74 62.42 71.43 69.63"/><polygon class="cls-16" points="71.43 69.63 80.38 50.95 63.74 62.42 71.43 69.63"/></g><circle class="cls-1" cx="80" cy="80.55" r="79.62"/></g></g><text class="cls-17" transform="translate(1.74 194.58)">FlameHound</text><g id="Layer_2-10" data-name="Layer 2"><g id="Layer_1-5" data-name="Layer 1"><circle class="cls-5" cx="439.23" cy="80.55" r="79.62"/><g class="cls-18"><g id="Layer_2-11" data-name="Layer 2"><g class="cls-19"><path id="_Compound_Path_5" data-name="&lt;Compound Path&gt;" class="cls-13" d="M137.38,133.86c-17.87,1.67-34.27-20-38.17-39.5,0,0-28.23,54.61,41.72,71.43l-6.28,2.86s25.31,7.81,40.26-4.48a44.13,44.13,0,0,0,6.29-6.59A57,57,0,0,0,176,171.29c-2.88,14-21.1,33.36-23.05,40.86s-3.31,50.62-1.6,51.51l15.49,8s-1.71-40.14.57-42a78.65,78.65,0,0,0,11-12.28c-2.92,7.32-5.92,13.22-7.63,14-4,1.85-1.54,50.23-.1,51.85s21.33,12.33,25.84,12-7-16.69-7-16.69,4.24-31.83,3.46-37.9c-.73-5.67,36.32-23.38,50.47-41.52l6.3,2c40,11.28,30.87,31.46,73.21,33.92,2.45.14-18.26,47.69-22,57.52s-12.14,13.35-12.36,17.16-1.31,20.26-1.53,23.2,19.06,12.91,22,11.39-3.05-17.72-3-20.31,39.11-70.5,39.11-70.5S313.82,316.66,311,319.59s2.26,21.67,2.26,21.67l12.88,7.11a1.08,1.08,0,0,0,1.49-1.43c-1.19-2.36-2.29-9.16-5.6-11.31-2.23-1.45,2.51-8.59,2.51-8.59S337.92,303,344.2,294.42s24.74-43.9,37-50.67c4.21-2.33,9.5-4.85,15.49-8.68.29,0,.59-.09.89-.16,20.15-4.12,34.82-29.68,34.82-29.68s-5.91,18.17-6.49,18.74,15-13.2,25.73-40.78,13-83.4,13-83.4,16-20.28,19.23-26,8.39-5.69,9.65-8.54-4.86-12.11-5.82-11.51-5.6,4.08-5.6,4.08l-4.66-1.53-.22,3.81s-9.22,2.65-9.74,2.38.09-6.5,1.42-9.08a65.28,65.28,0,0,1,4.69-7l3.1,1.17.15-4.94a30.4,30.4,0,0,0,1.9-5.78c.47-2.59-3.78-9.15-3.78-9.15s.45-1.29-.45-5.47-3.74-5.42-6.82-1.56S457.23,32.08,452,37.47,440.76,45.37,427.54,49s-20.37,18.54-22.48,19.52c-22.33,10.31-30.71,27.16-31.25,28.19s16.39,3.85,16.39,3.85a64.62,64.62,0,0,1-11.5,14.92h0s-12.09,13.1-22.25,1.66c-8.59-9.68-27.16-15.79-27.16-15.79l4.62,5.4s-8.71-3.81-25.63-8.2-30.41-17.1-30.41-17.1l1.59,7.87s-26.33-13.61-47-14.49-30.55,4.27-30,4.53,12.8,2.77,14.41,3c-2.39.17-27.31,5.78-41.53,28.81l9.94-4.89s-8,13.76-16.17,16.94a55.48,55.48,0,0,1-15,3.61l6.54,3.38s-19.09,2.34-29.73-5.77c0,0,7.68,9.33,6.46,9.44m38.49-23.5a44.84,44.84,0,0,1,7.18-7.29,58.2,58.2,0,0,0-7.18,7.29"/><path class="cls-1" d="M99.21,94.36S71,149,140.93,165.79l-6.28,2.86s25.31,7.81,40.26-4.48a44.13,44.13,0,0,0,6.29-6.59A57,57,0,0,0,176,171.29c-2.88,14-21.1,33.36-23.05,40.86s-3.31,50.62-1.6,51.51l15.49,8s-1.71-40.14.57-42a78.65,78.65,0,0,0,11-12.28c-2.92,7.32-5.92,13.22-7.63,14-4,1.85-1.54,50.23-.1,51.85s21.33,12.33,25.84,12-7-16.69-7-16.69,4.24-31.83,3.46-37.9c-.73-5.67,36.32-23.38,50.47-41.52l6.3,2c40,11.28,30.87,31.46,73.21,33.92,2.45.14-18.26,47.69-22,57.52s-12.14,13.35-12.36,17.16-1.31,20.26-1.53,23.2,19.06,12.91,22,11.39-3.05-17.72-3-20.31,39.11-70.5,39.11-70.5S313.82,316.66,311,319.59s2.26,21.67,2.26,21.67l12.88,7.11a1.08,1.08,0,0,0,1.49-1.43c-1.19-2.36-2.29-9.16-5.6-11.31-2.23-1.45,2.51-8.59,2.51-8.59S337.92,303,344.2,294.42s24.74-43.9,37-50.67c4.21-2.33,9.5-4.85,15.49-8.68.29,0,.59-.09.89-.16,20.15-4.12,34.82-29.68,34.82-29.68s-5.91,18.17-6.49,18.74,15-13.2,25.73-40.78,13-83.4,13-83.4,16-20.28,19.23-26,8.39-5.69,9.65-8.54-4.86-12.11-5.82-11.51-5.6,4.08-5.6,4.08l-4.66-1.53-.22,3.81s-9.22,2.65-9.74,2.38.09-6.5,1.42-9.08a65.28,65.28,0,0,1,4.69-7l3.1,1.17.15-4.94a30.4,30.4,0,0,0,1.9-5.78c.47-2.59-3.78-9.15-3.78-9.15s.45-1.29-.45-5.47-3.74-5.42-6.82-1.56S457.23,32.08,452,37.47,440.76,45.37,427.54,49s-20.37,18.54-22.48,19.52c-22.33,10.31-30.71,27.16-31.25,28.19s16.39,3.85,16.39,3.85a64.62,64.62,0,0,1-11.5,14.92h0s-12.09,13.1-22.25,1.66c-8.59-9.68-27.16-15.79-27.16-15.79l4.62,5.4s-8.71-3.81-25.63-8.2-30.41-17.1-30.41-17.1l1.59,7.87s-26.33-13.61-47-14.49-30.55,4.27-30,4.53,12.8,2.77,14.41,3c-2.39.17-27.31,5.78-41.53,28.81l9.94-4.89s-8,13.76-16.17,16.94a55.48,55.48,0,0,1-15,3.61l6.54,3.38s-19.09,2.34-29.73-5.77c0,0,7.68,9.33,6.46,9.44C119.51,135.53,103.11,113.82,99.21,94.36Zm83.84,8.71a58.2,58.2,0,0,0-7.18,7.29A44.84,44.84,0,0,1,183.06,103.06Z"/></g></g></g></g></g><g id="Layer_2-12" data-name="Layer 2"><g id="Layer_1-6" data-name="Layer 1"><circle cx="259.62" cy="80.55" r="79.62"/><g class="cls-20"><g id="Layer_2-13" data-name="Layer 2"><g class="cls-21"><path id="_Compound_Path_6" data-name="&lt;Compound Path&gt;" class="cls-5" d="M-42.24,133.86c-17.87,1.67-34.27-20-38.17-39.5,0,0-28.23,54.61,41.72,71.43L-45,168.65s25.31,7.81,40.26-4.48a44.13,44.13,0,0,0,6.29-6.59,57,57,0,0,0-5.16,13.71c-2.88,14-21.1,33.36-23.05,40.86s-3.31,50.62-1.6,51.51l15.49,8s-1.71-40.14.57-42a78.65,78.65,0,0,0,11-12.28c-2.92,7.32-5.92,13.22-7.63,14-4,1.85-1.54,50.23-.1,51.85s21.33,12.33,25.84,12-7-16.69-7-16.69,4.24-31.83,3.46-37.9c-.73-5.67,36.32-23.38,50.47-41.52l6.3,2c40,11.28,30.87,31.46,73.21,33.92,2.45.14-18.26,47.69-22,57.52S109.22,305.93,109,309.74s-1.31,20.26-1.53,23.2,19.06,12.91,22,11.39-3.05-17.72-3-20.31,39.11-70.5,39.11-70.5-31.39,63.15-34.16,66.08,2.26,21.67,2.26,21.67l12.88,7.11a1.08,1.08,0,0,0,1.49-1.43c-1.19-2.36-2.29-9.16-5.6-11.31C140.25,334.17,145,327,145,327S158.3,303,164.59,294.42s24.74-43.9,37-50.67c4.21-2.33,9.5-4.85,15.49-8.68.29,0,.59-.09.89-.16,20.15-4.12,34.82-29.68,34.82-29.68s-5.91,18.17-6.49,18.74,15-13.2,25.73-40.78,13-83.4,13-83.4,16-20.28,19.23-26,8.39-5.69,9.65-8.54S309,53.12,308.08,53.72s-5.6,4.08-5.6,4.08l-4.66-1.53-.22,3.81s-9.22,2.65-9.74,2.38.09-6.5,1.42-9.08a65.28,65.28,0,0,1,4.69-7l3.1,1.17.15-4.94a30.4,30.4,0,0,0,1.9-5.78c.47-2.59-3.78-9.15-3.78-9.15s.45-1.29-.45-5.47-3.74-5.42-6.82-1.56-10.47,11.38-15.65,16.77S261.15,45.37,247.93,49s-20.37,18.54-22.48,19.52c-22.33,10.31-30.71,27.16-31.25,28.19s16.39,3.85,16.39,3.85a64.62,64.62,0,0,1-11.5,14.92h0s-12.09,13.1-22.25,1.66c-8.59-9.68-27.16-15.79-27.16-15.79l4.62,5.4s-8.71-3.81-25.63-8.2-30.41-17.1-30.41-17.1l1.59,7.87s-26.33-13.61-47-14.49-30.55,4.27-30,4.53,12.8,2.77,14.41,3c-2.39.17-27.31,5.78-41.53,28.81l9.94-4.89s-8,13.76-16.17,16.94a55.48,55.48,0,0,1-15,3.61l6.54,3.38s-19.09,2.34-29.73-5.77c0,0,7.68,9.33,6.46,9.44m38.49-23.5a44.84,44.84,0,0,1,7.18-7.29,58.2,58.2,0,0,0-7.18,7.29"/><path class="cls-1" d="M-80.4,94.36S-108.64,149-38.68,165.79L-45,168.65s25.31,7.81,40.26-4.48a44.13,44.13,0,0,0,6.29-6.59,57,57,0,0,0-5.16,13.71c-2.88,14-21.1,33.36-23.05,40.86s-3.31,50.62-1.6,51.51l15.49,8s-1.71-40.14.57-42a78.65,78.65,0,0,0,11-12.28c-2.92,7.32-5.92,13.22-7.63,14-4,1.85-1.54,50.23-.1,51.85s21.33,12.33,25.84,12-7-16.69-7-16.69,4.24-31.83,3.46-37.9c-.73-5.67,36.32-23.38,50.47-41.52l6.3,2c40,11.28,30.87,31.46,73.21,33.92,2.45.14-18.26,47.69-22,57.52S109.22,305.93,109,309.74s-1.31,20.26-1.53,23.2,19.06,12.91,22,11.39-3.05-17.72-3-20.31,39.11-70.5,39.11-70.5-31.39,63.15-34.16,66.08,2.26,21.67,2.26,21.67l12.88,7.11a1.08,1.08,0,0,0,1.49-1.43c-1.19-2.36-2.29-9.16-5.6-11.31C140.25,334.17,145,327,145,327S158.3,303,164.59,294.42s24.74-43.9,37-50.67c4.21-2.33,9.5-4.85,15.49-8.68.29,0,.59-.09.89-.16,20.15-4.12,34.82-29.68,34.82-29.68s-5.91,18.17-6.49,18.74,15-13.2,25.73-40.78,13-83.4,13-83.4,16-20.28,19.23-26,8.39-5.69,9.65-8.54S309,53.12,308.08,53.72s-5.6,4.08-5.6,4.08l-4.66-1.53-.22,3.81s-9.22,2.65-9.74,2.38.09-6.5,1.42-9.08a65.28,65.28,0,0,1,4.69-7l3.1,1.17.15-4.94a30.4,30.4,0,0,0,1.9-5.78c.47-2.59-3.78-9.15-3.78-9.15s.45-1.29-.45-5.47-3.74-5.42-6.82-1.56-10.47,11.38-15.65,16.77S261.15,45.37,247.93,49s-20.37,18.54-22.48,19.52c-22.33,10.31-30.71,27.16-31.25,28.19s16.39,3.85,16.39,3.85a64.62,64.62,0,0,1-11.5,14.92h0s-12.09,13.1-22.25,1.66c-8.59-9.68-27.16-15.79-27.16-15.79l4.62,5.4s-8.71-3.81-25.63-8.2-30.41-17.1-30.41-17.1l1.59,7.87s-26.33-13.61-47-14.49-30.55,4.27-30,4.53,12.8,2.77,14.41,3c-2.39.17-27.31,5.78-41.53,28.81l9.94-4.89s-8,13.76-16.17,16.94a55.48,55.48,0,0,1-15,3.61l6.54,3.38s-19.09,2.34-29.73-5.77c0,0,7.68,9.33,6.46,9.44C-60.11,135.53-76.51,113.82-80.4,94.36Zm83.84,8.71a58.2,58.2,0,0,0-7.18,7.29A44.84,44.84,0,0,1,3.44,103.06Z"/></g></g></g><circle class="cls-1" cx="259.62" cy="80.55" r="79.62"/></g></g></g></g></svg>