<svg id="Layer_3" data-name="Layer 3" xmlns="http://www.w3.org/2000/svg" xmlns:xlink="http://www.w3.org/1999/xlink" viewBox="0 0 160 160"><defs><style>.cls-1,.cls-2{fill:none;}.cls-1,.cls-3,.cls-4{stroke:#000;stroke-miterlimit:10;}.cls-4,.cls-9{fill:#010101;}.cls-5{fill:#ff6f00;}.cls-6{clip-path:url(#clip-path);}.cls-7{clip-path:url(#clip-path-2);}.cls-8{fill:#1d1d1d;}.cls-10{clip-path:url(#clip-path-3);}.cls-11{clip-path:url(#clip-path-4);}.cls-12{clip-path:url(#clip-path-5);}.cls-13{clip-path:url(#clip-path-6);}.cls-14{fill:#fff;}.cls-15{clip-path:url(#clip-path-7);}.cls-16{clip-path:url(#clip-path-8);}.cls-17{clip-path:url(#clip-path-9);}</style><clipPath id="clip-path"><circle class="cls-1" cx="80.38" cy="80.55" r="79.62"/></clipPath><clipPath id="clip-path-2"><rect class="cls-2" x="-736.26" y="-76.07" width="1394.82" height="1394.82" transform="translate(-572.95 301.49) rotate(-62.66)"/></clipPath><clipPath id="clip-path-3"><circle class="cls-4" cx="260.38" cy="80.55" r="79.62"/></clipPath><clipPath id="clip-path-4"><rect class="cls-2" x="-556.26" y="-76.07" width="1394.82" height="1394.82" transform="translate(-475.62 461.39) rotate(-62.66)"/></clipPath><clipPath id="clip-path-5"><circle class="cls-5" cx="440.38" cy="80.55" r="79.62"/></clipPath><clipPath id="clip-path-6"><rect class="cls-2" x="-376.26" y="-76.07" width="1394.82" height="1394.82" transform="translate(-378.28 621.28) rotate(-62.66)"/></clipPath><clipPath id="clip-path-7"><circle class="cls-1" cx="80" cy="260.55" r="79.62"/></clipPath><clipPath id="clip-path-8"><circle class="cls-5" cx="439.23" cy="260.55" r="79.62"/></clipPath><clipPath id="clip-path-9"><circle class="cls-3" cx="259.62" cy="260.55" r="79.62"/></clipPath></defs><title>FlameHound Logo with Transparency</title><g id="Layer_2" data-name="Layer 2"><g id="Layer_4" data-name="Layer 4"><g id="Layer_2-2" data-name="Layer 2"><g id="Layer_1" data-name="Layer 1"><g class="cls-6"><g id="Layer_2-3" data-name="Layer 2"><g class="cls-7"><path id="_Compound_Path_" data-name="&lt;Compound Path&gt;" class="cls-5" d="M-221.47,133.86c-17.87,1.67-34.27-20-38.17-39.5,0,0-28.23,54.61,41.72,71.43l-6.28,2.86s25.31,7.81,40.26-4.48a44.13,44.13,0,0,0,6.29-6.59,57,57,0,0,0-5.16,13.71c-2.88,14-21.1,33.36-23.05,40.86s-3.31,50.62-1.6,51.51l15.49,8s-1.71-40.14.57-42a78.65,78.65,0,0,0,11-12.28c-2.92,7.32-5.92,13.22-7.63,14-4,1.85-1.54,50.23-.1,51.85s21.33,12.33,25.84,12-7-16.69-7-16.69,4.24-31.83,3.46-37.9c-.73-5.67,36.32-23.38,50.47-41.52l6.3,2c40,11.28,30.87,31.46,73.21,33.92,2.45.14-18.26,47.69-22,57.52S-70,305.93-70.23,309.74s-1.31,20.26-1.53,23.2,19.06,12.91,22,11.39-3.05-17.72-3-20.31,39.11-70.5,39.11-70.5S-45,316.66-47.8,319.59s2.26,21.67,2.26,21.67l12.88,7.11a1.08,1.08,0,0,0,1.49-1.43c-1.19-2.36-2.29-9.16-5.6-11.31C-39,334.17-34.25,327-34.25,327S-20.93,303-14.65,294.42s24.74-43.9,37-50.67c4.21-2.33,9.5-4.85,15.49-8.68.29,0,.59-.09.89-.16,20.15-4.12,34.82-29.68,34.82-29.68S67.62,223.41,67,224s15-13.2,25.73-40.78,13-83.4,13-83.4,16-20.28,19.23-26,8.39-5.69,9.65-8.54-4.86-12.11-5.82-11.51-5.6,4.08-5.6,4.08l-4.66-1.53-.22,3.81s-9.22,2.65-9.74,2.38.09-6.5,1.42-9.08a65.28,65.28,0,0,1,4.69-7l3.1,1.17.15-4.94a30.4,30.4,0,0,0,1.9-5.78c.47-2.59-3.78-9.15-3.78-9.15s.45-1.29-.45-5.47-3.74-5.42-6.82-1.56S98.38,32.08,93.2,37.47,81.92,45.37,68.7,49,48.32,67.55,46.21,68.53C23.89,78.84,15.5,95.69,15,96.72s16.39,3.85,16.39,3.85a64.62,64.62,0,0,1-11.5,14.92h0s-12.09,13.1-22.25,1.66c-8.59-9.68-27.16-15.79-27.16-15.79l4.62,5.4s-8.71-3.81-25.63-8.2S-81,81.46-81,81.46l1.59,7.87s-26.33-13.61-47-14.49-30.55,4.27-30,4.53,12.8,2.77,14.41,3c-2.39.17-27.31,5.78-41.53,28.81l9.94-4.89s-8,13.76-16.17,16.94a55.48,55.48,0,0,1-15,3.61l6.54,3.38s-19.09,2.34-29.73-5.77c0,0,7.68,9.33,6.46,9.44m38.49-23.5a44.84,44.84,0,0,1,7.18-7.29,58.2,58.2,0,0,0-7.18,7.29"/><path class="cls-1" d="M-259.64,94.36s-28.23,54.61,41.72,71.43l-6.28,2.86s25.31,7.81,40.26-4.48a44.13,44.13,0,0,0,6.29-6.59,57,57,0,0,0-5.16,13.71c-2.88,14-21.1,33.36-23.05,40.86s-3.31,50.62-1.6,51.51l15.49,8s-1.71-40.14.57-42a78.65,78.65,0,0,0,11-12.28c-2.92,7.32-5.92,13.22-7.63,14-4,1.85-1.54,50.23-.1,51.85s21.33,12.33,25.84,12-7-16.69-7-16.69,4.24-31.83,3.46-37.9c-.73-5.67,36.32-23.38,50.47-41.52l6.3,2c40,11.28,30.87,31.46,73.21,33.92,2.45.14-18.26,47.69-22,57.52S-70,305.93-70.23,309.74s-1.31,20.26-1.53,23.2,19.06,12.91,22,11.39-3.05-17.72-3-20.31,39.11-70.5,39.11-70.5S-45,316.66-47.8,319.59s2.26,21.67,2.26,21.67l12.88,7.11a1.08,1.08,0,0,0,1.49-1.43c-1.19-2.36-2.29-9.16-5.6-11.31C-39,334.17-34.25,327-34.25,327S-20.93,303-14.65,294.42s24.74-43.9,37-50.67c4.21-2.33,9.5-4.85,15.49-8.68.29,0,.59-.09.89-.16,20.15-4.12,34.82-29.68,34.82-29.68S67.62,223.41,67,224s15-13.2,25.73-40.78,13-83.4,13-83.4,16-20.28,19.23-26,8.39-5.69,9.65-8.54-4.86-12.11-5.82-11.51-5.6,4.08-5.6,4.08l-4.66-1.53-.22,3.81s-9.22,2.65-9.74,2.38.09-6.5,1.42-9.08a65.28,65.28,0,0,1,4.69-7l3.1,1.17.15-4.94a30.4,30.4,0,0,0,1.9-5.78c.47-2.59-3.78-9.15-3.78-9.15s.45-1.29-.45-5.47-3.74-5.42-6.82-1.56S98.38,32.08,93.2,37.47,81.92,45.37,68.7,49,48.32,67.55,46.21,68.53C23.89,78.84,15.5,95.69,15,96.72s16.39,3.85,16.39,3.85a64.62,64.62,0,0,1-11.5,14.92h0s-12.09,13.1-22.25,1.66c-8.59-9.68-27.16-15.79-27.16-15.79l4.62,5.4s-8.71-3.81-25.63-8.2S-81,81.46-81,81.46l1.59,7.87s-26.33-13.61-47-14.49-30.55,4.27-30,4.53,12.8,2.77,14.41,3c-2.39.17-27.31,5.78-41.53,28.81l9.94-4.89s-8,13.76-16.17,16.94a55.48,55.48,0,0,1-15,3.61l6.54,3.38s-19.09,2.34-29.73-5.77c0,0,7.68,9.33,6.46,9.44C-239.34,135.53-255.74,113.82-259.64,94.36Zm83.84,8.71a58.2,58.2,0,0,0-7.18,7.29A44.84,44.84,0,0,1-175.79,103.06Z"/></g></g><path d="M74.37,58.49A29,29,0,0,1,78,54.23"/><polygon class="cls-2" points="71.81 69.63 84.61 54.55 76.92 47.35 64.13 62.42 71.81 69.63"/><polygon class="cls-8" points="71.81 69.63 80.77 50.95 64.13 62.42 71.81 69.63"/></g><circle class="cls-1" cx="80.38" cy="80.55" r="79.62"/></g></g><g id="Layer_2-4" data-name="Layer 2"><g id="Layer_1-2" data-name="Layer 1"><circle class="cls-9" cx="260.38" cy="80.55" r="79.62"/><g class="cls-10"><g id="Layer_2-5" data-name="Layer 2"><g class="cls-11"><path id="_Compound_Path_2" data-name="&lt;Compound Path&gt;" class="cls-5" d="M-41.47,133.86c-17.87,1.67-34.27-20-38.17-39.5,0,0-28.23,54.61,41.72,71.43l-6.28,2.86s25.31,7.81,40.26-4.48a44.13,44.13,0,0,0,6.29-6.59A57,57,0,0,0-2.8,171.29c-2.88,14-21.1,33.36-23.05,40.86s-3.31,50.62-1.6,51.51l15.49,8s-1.71-40.14.57-42a78.65,78.65,0,0,0,11-12.28c-2.92,7.32-5.92,13.22-7.63,14-4,1.85-1.54,50.23-.1,51.85s21.33,12.33,25.84,12-7-16.69-7-16.69,4.24-31.83,3.46-37.9c-.73-5.67,36.32-23.38,50.47-41.52l6.3,2c40,11.28,30.87,31.46,73.21,33.92,2.45.14-18.26,47.69-22,57.52S110,305.93,109.77,309.74s-1.31,20.26-1.53,23.2,19.06,12.91,22,11.39-3.05-17.72-3-20.31,39.11-70.5,39.11-70.5S135,316.66,132.2,319.59s2.26,21.67,2.26,21.67l12.88,7.11a1.08,1.08,0,0,0,1.49-1.43c-1.19-2.36-2.29-9.16-5.6-11.31-2.23-1.45,2.51-8.59,2.51-8.59s13.32-24.08,19.61-32.61,24.74-43.9,37-50.67c4.21-2.33,9.5-4.85,15.49-8.68.29,0,.59-.09.89-.16,20.15-4.12,34.82-29.68,34.82-29.68S247.62,223.41,247,224s15-13.2,25.73-40.78,13-83.4,13-83.4,16-20.28,19.23-26,8.39-5.69,9.65-8.54-4.86-12.11-5.82-11.51-5.6,4.08-5.6,4.08l-4.66-1.53-.22,3.81s-9.22,2.65-9.74,2.38.09-6.5,1.42-9.08a65.28,65.28,0,0,1,4.69-7l3.1,1.17.15-4.94a30.4,30.4,0,0,0,1.9-5.78c.47-2.59-3.78-9.15-3.78-9.15s.45-1.29-.45-5.47-3.74-5.42-6.82-1.56S278.38,32.08,273.2,37.47,261.92,45.37,248.7,49s-20.37,18.54-22.48,19.52C203.89,78.84,195.5,95.69,195,96.72s16.39,3.85,16.39,3.85a64.62,64.62,0,0,1-11.5,14.92h0s-12.09,13.1-22.25,1.66c-8.59-9.68-27.16-15.79-27.16-15.79l4.62,5.4s-8.71-3.81-25.63-8.2S99,81.46,99,81.46l1.59,7.87s-26.33-13.61-47-14.49-30.55,4.27-30,4.53,12.8,2.77,14.41,3c-2.39.17-27.31,5.78-41.53,28.81l9.94-4.89S-1.6,120-9.79,123.2a55.48,55.48,0,0,1-15,3.61l6.54,3.38s-19.09,2.34-29.73-5.77c0,0,7.68,9.33,6.46,9.44M-3,110.36a44.84,44.84,0,0,1,7.18-7.29A58.2,58.2,0,0,0-3,110.36"/><path class="cls-1" d="M-79.64,94.36S-107.87,149-37.91,165.79l-6.28,2.86s25.31,7.81,40.26-4.48a44.13,44.13,0,0,0,6.29-6.59A57,57,0,0,0-2.8,171.29c-2.88,14-21.1,33.36-23.05,40.86s-3.31,50.62-1.6,51.51l15.49,8s-1.71-40.14.57-42a78.65,78.65,0,0,0,11-12.28c-2.92,7.32-5.92,13.22-7.63,14-4,1.85-1.54,50.23-.1,51.85s21.33,12.33,25.84,12-7-16.69-7-16.69,4.24-31.83,3.46-37.9c-.73-5.67,36.32-23.38,50.47-41.52l6.3,2c40,11.28,30.87,31.46,73.21,33.92,2.45.14-18.26,47.69-22,57.52S110,305.93,109.77,309.74s-1.31,20.26-1.53,23.2,19.06,12.91,22,11.39-3.05-17.72-3-20.31,39.11-70.5,39.11-70.5S135,316.66,132.2,319.59s2.26,21.67,2.26,21.67l12.88,7.11a1.08,1.08,0,0,0,1.49-1.43c-1.19-2.36-2.29-9.16-5.6-11.31-2.23-1.45,2.51-8.59,2.51-8.59s13.32-24.08,19.61-32.61,24.74-43.9,37-50.67c4.21-2.33,9.5-4.85,15.49-8.68.29,0,.59-.09.89-.16,20.15-4.12,34.82-29.68,34.82-29.68S247.62,223.41,247,224s15-13.2,25.73-40.78,13-83.4,13-83.4,16-20.28,19.23-26,8.39-5.69,9.65-8.54-4.86-12.11-5.82-11.51-5.6,4.08-5.6,4.08l-4.66-1.53-.22,3.81s-9.22,2.65-9.74,2.38.09-6.5,1.42-9.08a65.28,65.28,0,0,1,4.69-7l3.1,1.17.15-4.94a30.4,30.4,0,0,0,1.9-5.78c.47-2.59-3.78-9.15-3.78-9.15s.45-1.29-.45-5.47-3.74-5.42-6.82-1.56S278.38,32.08,273.2,37.47,261.92,45.37,248.7,49s-20.37,18.54-22.48,19.52C203.89,78.84,195.5,95.69,195,96.72s16.39,3.85,16.39,3.85a64.62,64.62,0,0,1-11.5,14.92h0s-12.09,13.1-22.25,1.66c-8.59-9.68-27.16-15.79-27.16-15.79l4.62,5.4s-8.71-3.81-25.63-8.2S99,81.46,99,81.46l1.59,7.87s-26.33-13.61-47-14.49-30.55,4.27-30,4.53,12.8,2.77,14.41,3c-2.39.17-27.31,5.78-41.53,28.81l9.94-4.89S-1.6,120-9.79,123.2a55.48,55.48,0,0,1-15,3.61l6.54,3.38s-19.09,2.34-29.73-5.77c0,0,7.68,9.33,6.46,9.44C-59.34,135.53-75.74,113.82-79.64,94.36Zm83.84,8.71A58.2,58.2,0,0,0-3,110.36,44.84,44.84,0,0,1,4.21,103.06Z"/></g></g></g><circle class="cls-1" cx="260.38" cy="80.55" r="79.62"/></g></g><g id="Layer_2-6" data-name="Layer 2"><g id="Layer_1-3" data-name="Layer 1"><circle class="cls-5" cx="440.38" cy="80.55" r="79.62"/><g class="cls-12"><g id="Layer_2-7" data-name="Layer 2"><g class="cls-13"><path id="_Compound_Path_3" data-name="&lt;Compound Path&gt;" class="cls-14" d="M138.53,133.86c-17.87,1.67-34.27-20-38.17-39.5,0,0-28.23,54.61,41.72,71.43l-6.28,2.86s25.31,7.81,40.26-4.48a44.13,44.13,0,0,0,6.29-6.59,57,57,0,0,0-5.16,13.71c-2.88,14-21.1,33.36-23.05,40.86s-3.31,50.62-1.6,51.51l15.49,8s-1.71-40.14.57-42a78.65,78.65,0,0,0,11-12.28c-2.92,7.32-5.92,13.22-7.63,14-4,1.85-1.54,50.23-.1,51.85s21.33,12.33,25.84,12-7-16.69-7-16.69,4.24-31.83,3.46-37.9c-.73-5.67,36.32-23.38,50.47-41.52l6.3,2c40,11.28,30.87,31.46,73.21,33.92,2.45.14-18.26,47.69-22,57.52S290,305.93,289.77,309.74s-1.31,20.26-1.53,23.2,19.06,12.91,22,11.39-3.05-17.72-3-20.31,39.11-70.5,39.11-70.5S315,316.66,312.2,319.59s2.26,21.67,2.26,21.67l12.88,7.11a1.08,1.08,0,0,0,1.49-1.43c-1.19-2.36-2.29-9.16-5.6-11.31-2.23-1.45,2.51-8.59,2.51-8.59s13.32-24.08,19.61-32.61,24.74-43.9,37-50.67c4.21-2.33,9.5-4.85,15.49-8.68.29,0,.59-.09.89-.16,20.15-4.12,34.82-29.68,34.82-29.68S427.62,223.41,427,224s15-13.2,25.73-40.78,13-83.4,13-83.4,16-20.28,19.23-26,8.39-5.69,9.65-8.54-4.86-12.11-5.82-11.51-5.6,4.08-5.6,4.08l-4.66-1.53-.22,3.81s-9.22,2.65-9.74,2.38.09-6.5,1.42-9.08a65.28,65.28,0,0,1,4.69-7l3.1,1.17.15-4.94a30.4,30.4,0,0,0,1.9-5.78c.47-2.59-3.78-9.15-3.78-9.15s.45-1.29-.45-5.47-3.74-5.42-6.82-1.56S458.38,32.08,453.2,37.47,441.92,45.37,428.7,49s-20.37,18.54-22.48,19.52C383.89,78.84,375.5,95.69,375,96.72s16.39,3.85,16.39,3.85a64.62,64.62,0,0,1-11.5,14.92h0s-12.09,13.1-22.25,1.66c-8.59-9.68-27.16-15.79-27.16-15.79l4.62,5.4s-8.71-3.81-25.63-8.2S279,81.46,279,81.46l1.59,7.87s-26.33-13.61-47-14.49-30.55,4.27-30,4.53,12.8,2.77,14.41,3c-2.39.17-27.31,5.78-41.53,28.81l9.94-4.89s-8,13.76-16.17,16.94a55.48,55.48,0,0,1-15,3.61l6.54,3.38s-19.09,2.34-29.73-5.77c0,0,7.68,9.33,6.46,9.44M177,110.36a44.84,44.84,0,0,1,7.18-7.29,58.2,58.2,0,0,0-7.18,7.29"/><path class="cls-1" d="M100.36,94.36S72.13,149,142.09,165.79l-6.28,2.86s25.31,7.81,40.26-4.48a44.13,44.13,0,0,0,6.29-6.59,57,57,0,0,0-5.16,13.71c-2.88,14-21.1,33.36-23.05,40.86s-3.31,50.62-1.6,51.51l15.49,8s-1.71-40.14.57-42a78.65,78.65,0,0,0,11-12.28c-2.92,7.32-5.92,13.22-7.63,14-4,1.85-1.54,50.23-.1,51.85s21.33,12.33,25.84,12-7-16.69-7-16.69,4.24-31.83,3.46-37.9c-.73-5.67,36.32-23.38,50.47-41.52l6.3,2c40,11.28,30.87,31.46,73.21,33.92,2.45.14-18.26,47.69-22,57.52S290,305.93,289.77,309.74s-1.31,20.26-1.53,23.2,19.06,12.91,22,11.39-3.05-17.72-3-20.31,39.11-70.5,39.11-70.5S315,316.66,312.2,319.59s2.26,21.67,2.26,21.67l12.88,7.11a1.08,1.08,0,0,0,1.49-1.43c-1.19-2.36-2.29-9.16-5.6-11.31-2.23-1.45,2.51-8.59,2.51-8.59s13.32-24.08,19.61-32.61,24.74-43.9,37-50.67c4.21-2.33,9.5-4.85,15.49-8.68.29,0,.59-.09.89-.16,20.15-4.12,34.82-29.68,34.82-29.68S427.62,223.41,427,224s15-13.2,25.73-40.78,13-83.4,13-83.4,16-20.28,19.23-26,8.39-5.69,9.65-8.54-4.86-12.11-5.82-11.51-5.6,4.08-5.6,4.08l-4.66-1.53-.22,3.81s-9.22,2.65-9.74,2.38.09-6.5,1.42-9.08a65.28,65.28,0,0,1,4.69-7l3.1,1.17.15-4.94a30.4,30.4,0,0,0,1.9-5.78c.47-2.59-3.78-9.15-3.78-9.15s.45-1.29-.45-5.47-3.74-5.42-6.82-1.56S458.38,32.08,453.2,37.47,441.92,45.37,428.7,49s-20.37,18.54-22.48,19.52C383.89,78.84,375.5,95.69,375,96.72s16.39,3.85,16.39,3.85a64.62,64.62,0,0,1-11.5,14.92h0s-12.09,13.1-22.25,1.66c-8.59-9.68-27.16-15.79-27.16-15.79l4.62,5.4s-8.71-3.81-25.63-8.2S279,81.46,279,81.46l1.59,7.87s-26.33-13.61-47-14.49-30.55,4.27-30,4.53,12.8,2.77,14.41,3c-2.39.17-27.31,5.78-41.53,28.81l9.94-4.89s-8,13.76-16.17,16.94a55.48,55.48,0,0,1-15,3.61l6.54,3.38s-19.09,2.34-29.73-5.77c0,0,7.68,9.33,6.46,9.44C120.66,135.53,104.26,113.82,100.36,94.36Zm83.84,8.71a58.2,58.2,0,0,0-7.18,7.29A44.84,44.84,0,0,1,184.21,103.06Z"/></g></g></g></g></g><g id="Layer_2-8" data-name="Layer 2"><g id="Layer_1-4" data-name="Layer 1"><circle class="cls-1" cx="80" cy="260.55" r="79.62"/></g></g><g id="Layer_2-10" data-name="Layer 2"><g id="Layer_1-5" data-name="Layer 1"><circle class="cls-5" cx="439.23" cy="260.55" r="79.62"/></g></g><g id="Layer_2-12" data-name="Layer 2"><g id="Layer_1-6" data-name="Layer 1"><circle cx="259.62" cy="260.55" r="79.62"/><circle class="cls-1" cx="259.62" cy="260.55" r="79.62"/></g></g></g></g></svg>